<svg width="54" height="71" viewBox="0 0 54 71" fill="none" xmlns="http://www.w3.org/2000/svg">
<path d="M2.8 71V61.4L30.4 36.7C33.5333 33.8333 35.7667 31.3333 37.1 29.2C38.4333 27 39.1 24.7333 39.1 22.4C39.1 19.3333 37.9 16.8 35.5 14.8C33.1 12.8 30.1 11.8 26.5 11.8C23.1667 11.8 20.0333 12.4667 17.1 13.8C14.2333 15.1333 11.1 17.3333 7.7 20.4L7.07805e-08 11.2C4.06667 7.53333 8.36667 4.76666 12.9 2.89999C17.4333 1.03333 22.1 0.0999949 26.9 0.0999949C30.6333 0.0999949 34.0667 0.633329 37.2 1.7C40.4 2.7 43.1 4.13333 45.3 6C47.5667 7.86666 49.3 10.1333 50.5 12.8C51.7667 15.4667 52.4 18.3667 52.4 21.5C52.4 25.5 51.4 29.2 49.4 32.6C47.4 36 43.9333 39.9 39 44.3L21.9 59.5H53.3V71H2.8Z" fill="#ACEFCA"/>
</svg>
