<svg width="57" height="73" viewBox="0 0 57 73" fill="none" xmlns="http://www.w3.org/2000/svg">
<path d="M56.5 52.5C56.5 55.4333 55.8 58.1667 54.4 60.7C53 63.2333 51.0333 65.4 48.5 67.2C46.0333 69 43.0667 70.4333 39.6 71.5C36.2 72.5 32.4667 73 28.4 73C23 73 17.8667 72.0333 13 70.1C8.13333 68.1667 4.06667 65.5 0.8 62.1L10 53.6C12.8 56.4 15.5667 58.3667 18.3 59.5C21.0333 60.6333 24.3667 61.2 28.3 61.2C32.5667 61.2 36.0333 60.3 38.7 58.5C41.3667 56.7 42.7 54.3667 42.7 51.5C42.7 48.9 41.4667 46.8333 39 45.3C36.6 43.7667 33.4 43 29.4 43H23V32.1H28C31.6 32.1 34.6 31.1333 37 29.2C39.4 27.2667 40.6 24.8333 40.6 21.9C40.6 19.3 39.4 17.1333 37 15.4C34.6667 13.6667 31.7 12.8 28.1 12.8C24.7 12.8 21.7 13.4333 19.1 14.7C16.5 15.9 13.7 18 10.7 21L1.4 12.5C4.8 8.9 8.9 6.06666 13.7 4C18.5 1.93333 23.4667 0.899997 28.6 0.899997C32.3333 0.899997 35.7667 1.4 38.9 2.4C42.1 3.33333 44.8333 4.66666 47.1 6.4C49.3667 8.13333 51.1333 10.2 52.4 12.6C53.6667 15 54.3 17.6333 54.3 20.5C54.3 23.9667 53.3667 27.1333 51.5 30C49.6333 32.8 47.1 35.0333 43.9 36.7C47.7 38.0333 50.7333 40.1 53 42.9C55.3333 45.7 56.5 48.9 56.5 52.5Z" fill="#ACEFCA"/>
</svg>
