<svg width="190" height="54" viewBox="0 0 190 54" fill="none" xmlns="http://www.w3.org/2000/svg">
<path d="M70.4199 3.47559H81.9268V5.63804H73.0786V12.5013H80.2585V14.668H73.0786V23.8372H70.4199V3.47559Z" fill="#003D3A"/>
<path d="M84.4102 3.42556C84.4156 3.07545 84.5241 2.73469 84.722 2.44583C84.9199 2.15697 85.1985 1.93281 85.523 1.80133C85.8476 1.66984 86.2036 1.63686 86.5468 1.70651C86.8899 1.77615 87.205 1.94533 87.4526 2.19293C87.7002 2.44053 87.8694 2.75557 87.939 3.09873C88.0087 3.44189 87.9757 3.79797 87.8442 4.1225C87.7127 4.44703 87.4886 4.72564 87.1997 4.92356C86.9108 5.12147 86.5701 5.22991 86.22 5.23535C85.9814 5.23876 85.7445 5.19428 85.5234 5.10454C85.3023 5.0148 85.1014 4.88162 84.9327 4.71288C84.7639 4.54414 84.6308 4.34327 84.541 4.12216C84.4513 3.90104 84.4068 3.66417 84.4102 3.42556ZM84.8474 7.83493H87.506V23.84H84.8474V7.83493Z" fill="#003D3A"/>
<path d="M94.3966 23.8397H91.7401V7.83458H94.3966V10.4447C95.3026 8.6645 97.0257 7.55371 99.5662 7.55371V10.299H98.8651C96.331 10.299 94.3966 11.4373 94.3966 15.1561V23.8397Z" fill="#003D3A"/>
<path d="M108.007 24.1042C104.267 24.1042 101.64 22.06 101.46 19.1394H104.206C104.351 20.6873 105.724 21.8551 107.973 21.8551C110.085 21.8551 111.244 20.7992 111.244 19.4899C111.244 15.9253 101.781 17.999 101.781 12.0417C101.781 9.58787 104.09 7.57324 107.652 7.57324C111.215 7.57324 113.523 9.47383 113.698 12.5971H111.043C110.927 10.9901 109.7 9.82228 107.568 9.82228C105.612 9.82228 104.442 10.7557 104.442 12.0417C104.442 15.8429 113.734 13.7649 113.848 19.4899C113.848 22.117 111.54 24.1042 108.007 24.1042Z" fill="#003D3A"/>
<path d="M117.877 10.0227H115.803V7.83492H117.877V3.80566H120.536V7.83492H124.713V10.0227H120.536V19.4581C120.536 21.0356 121.119 21.5889 122.755 21.5889H124.713V23.8379H122.318C119.484 23.8379 117.883 22.6701 117.883 19.4581L117.877 10.0227Z" fill="#003D3A"/>
<path d="M187.41 33.0743H185.856V31.0068H189.718V42.6934H187.41V33.0743Z" fill="#003D3A"/>
<path d="M84.4398 31.7734H87.2442L79.5617 52.1309H76.4955L68.8151 31.7734H71.6469L78.0434 49.3265L84.4398 31.7734Z" fill="#003D3A"/>
<path d="M96.1515 52.3864C91.5944 52.3864 88.2367 49.1723 88.2367 44.0914C88.2367 39.0104 91.4782 35.8555 96.1515 35.8555C100.825 35.8555 103.832 39.1266 103.832 43.5064C103.832 44.0433 103.803 44.5798 103.745 45.1135H90.9524C91.1636 48.355 93.4358 50.1374 96.1515 50.1374C98.5462 50.1374 100.065 48.9104 100.649 47.1809H103.511C102.694 50.1078 100.124 52.3864 96.1515 52.3864ZM90.982 42.951H101.087C101.116 39.8277 98.7785 38.1045 96.0332 38.1045C93.4358 38.1087 91.2734 39.8277 90.982 42.951Z" fill="#003D3A"/>
<path d="M118.755 43.0695C118.755 39.7984 116.973 38.1322 114.287 38.1322C111.601 38.1322 109.702 39.8216 109.702 43.2744V52.1227H107.044V36.1176H109.702V38.3962C110.758 36.7321 112.68 35.8262 114.84 35.8262C118.551 35.8262 121.387 38.1048 121.387 42.6894V52.1227H118.758L118.755 43.0695Z" fill="#003D3A"/>
<path d="M126.026 38.3072H123.952V36.1173H126.026V32.0859H128.685V36.1173H132.862V38.3072H128.685V47.7426C128.685 49.318 129.27 49.8734 130.904 49.8734H132.862V52.1224H130.467C127.633 52.1224 126.032 50.9546 126.032 47.7426L126.026 38.3072Z" fill="#003D3A"/>
<path d="M149.975 52.1223H147.323V49.7571C146.299 51.4212 144.343 52.3567 142.211 52.3567C138.532 52.3567 135.639 50.0781 135.639 45.4934V36.1172H138.268V45.1429C138.268 48.3844 140.05 50.0485 142.736 50.0485C145.482 50.0485 147.323 48.3591 147.323 44.9085V36.1172H149.98L149.975 52.1223Z" fill="#003D3A"/>
<path d="M156.839 52.1227H154.18V36.1176H156.839V38.7172C157.742 36.9349 159.468 35.8262 162.008 35.8262V38.5715H161.307C158.773 38.5715 156.839 39.7097 156.839 43.4285V52.1227Z" fill="#003D3A"/>
<path d="M171.703 52.3864C167.148 52.3864 163.788 49.1723 163.788 44.0914C163.788 39.0104 167.032 35.8555 171.703 35.8555C176.374 35.8555 179.385 39.1266 179.385 43.5064C179.386 44.0433 179.357 44.5799 179.297 45.1135H166.504C166.715 48.355 168.987 50.1374 171.703 50.1374C174.1 50.1374 175.618 48.9104 176.201 47.1809H179.064C178.245 50.1078 175.675 52.3864 171.703 52.3864ZM166.54 42.951H176.646C176.676 39.8277 174.332 38.1087 171.587 38.1087C168.987 38.1087 166.827 39.8277 166.54 42.951Z" fill="#003D3A"/>
<path d="M52.9433 0H1.05587C0.472728 0 0 0.472735 0 1.05588V52.9441C0 53.5273 0.472728 54 1.05587 54H52.9433C53.5264 54 53.9992 53.5273 53.9992 52.9441V1.05588C53.9992 0.472735 53.5264 0 52.9433 0Z" fill="#003D3A"/>
<path fill-rule="evenodd" clip-rule="evenodd" d="M33.2746 13.8232V17.5442H16.9614V32.2674H13.2405V13.8232H33.2746Z" fill="white"/>
<path fill-rule="evenodd" clip-rule="evenodd" d="M40.7565 21.7324V25.4555H24.4454V40.1787H20.7224V21.7324H40.7565Z" fill="white"/>
<path d="M36.514 29.6621H28.633V33.4485H36.514V29.6621Z" fill="#ACEFCA"/>
</svg>
