<svg width="40" height="37" viewBox="0 0 40 37" fill="none" xmlns="http://www.w3.org/2000/svg">
<path d="M35.304 18.606L31.0179 11.9873C30.6857 11.4743 30.1225 11.168 29.5113 11.168H10.6006C9.99039 11.168 9.42769 11.4735 9.09537 11.9852L4.79597 18.6048C4.35661 19.2812 4.42447 20.1742 4.96101 20.7764L18.7082 36.2101C19.0485 36.592 19.5369 36.8112 20.0485 36.8112C20.0485 36.8112 20.0485 36.8112 20.0485 36.8112C20.56 36.8112 21.0486 36.5921 21.3889 36.2101L35.1376 20.7755C35.6734 20.174 35.7418 19.2819 35.304 18.606ZM28.643 12.7068L25.0384 18.2807L21.4317 12.7068H28.643ZM23.6243 18.928H16.4727L20.0485 13.4018L23.6243 18.928ZM18.6652 12.707L15.0684 18.2656L11.4728 12.707H18.6652ZM10.05 13.3406L13.6642 18.928H6.42105L10.05 13.3406ZM6.74607 20.4669H14.4902L18.585 33.7581L6.74607 20.4669ZM20.0485 33.2816L16.1005 20.4669H23.9965L20.0485 33.2816ZM21.5119 33.7585L25.6068 20.467H33.3516L21.5119 33.7585ZM26.4526 18.928L30.0634 13.3444L33.679 18.928H26.4526Z" fill="#ACEFCA"/>
<path d="M2.68506 18.9287H1.12053C0.695636 18.9287 0.351074 19.2732 0.351074 19.6982C0.351074 20.1231 0.695636 20.4676 1.12053 20.4676H2.68506C3.10995 20.4676 3.45451 20.1231 3.45451 19.6982C3.45451 19.2732 3.10995 18.9287 2.68506 18.9287Z" fill="white"/>
<path d="M38.9778 18.9287H37.4133C36.9884 18.9287 36.6438 19.2732 36.6438 19.6982C36.6438 20.1231 36.9884 20.4676 37.4133 20.4676H38.9778C39.4027 20.4676 39.7472 20.1231 39.7472 19.6982C39.7472 19.2732 39.4027 18.9287 38.9778 18.9287Z" fill="white"/>
<path d="M33.9874 5.77321C33.6869 5.47273 33.1998 5.47273 32.8992 5.77321L30.3433 8.3291C30.0428 8.62957 30.0428 9.11679 30.3433 9.41726C30.4936 9.56754 30.6905 9.64263 30.8874 9.64263C31.0844 9.64263 31.2812 9.56746 31.4315 9.41726L33.9874 6.86137C34.2879 6.5609 34.2879 6.07375 33.9874 5.77321Z" fill="white"/>
<path d="M9.78811 8.31551L7.23229 5.75953C6.9319 5.45906 6.44483 5.45906 6.14405 5.75953C5.84358 6.06001 5.84358 6.54722 6.14405 6.8477L8.69995 9.40359C8.85022 9.55386 9.04713 9.62896 9.24403 9.62896C9.44093 9.62896 9.63784 9.55379 9.78811 9.40359C10.0886 9.1032 10.0886 8.6159 9.78811 8.31551Z" fill="white"/>
<path d="M20.0688 0C19.6439 0 19.2993 0.344484 19.2993 0.769454V5.78383C19.2993 6.2088 19.6438 6.55328 20.0688 6.55328C20.4937 6.55328 20.8382 6.2088 20.8382 5.78383V0.769454C20.8382 0.344561 20.4937 0 20.0688 0Z" fill="white"/>
<path d="M20.6122 7.84264C20.4692 7.69952 20.2706 7.61719 20.0683 7.61719C19.8659 7.61719 19.6674 7.69952 19.5243 7.84264C19.3812 7.98576 19.2988 8.18427 19.2988 8.38664C19.2988 8.58978 19.3811 8.78753 19.5243 8.93064C19.6674 9.07453 19.8659 9.15609 20.0683 9.15609C20.2706 9.15609 20.4692 9.07453 20.6122 8.93064C20.7561 8.78753 20.8377 8.58901 20.8377 8.38664C20.8377 8.18427 20.7561 7.98583 20.6122 7.84264Z" fill="#42D38A"/>
</svg>
