<svg width="47" height="29" viewBox="0 0 47 29" fill="none" xmlns="http://www.w3.org/2000/svg">
<path d="M36.6264 19.8783C35.7161 17.9803 32.4593 15.3459 29.3128 12.8004C27.5578 11.3817 25.8995 10.0404 24.8423 8.98317C24.5775 8.71645 24.1813 8.63138 23.8315 8.75704C23.1801 8.99287 22.7781 9.17452 22.4611 9.31558C21.978 9.53202 21.8156 9.6055 21.1642 9.67118C20.8762 9.70017 20.6173 9.85483 20.4568 10.0945C19.0903 12.1374 17.6755 11.9634 16.7304 11.6465C16.4289 11.546 16.3748 11.4165 16.3458 11.2928C16.1429 10.4444 17.1615 8.46902 18.4815 7.1489C21.6223 4.0062 23.2419 3.21953 26.663 4.74839C30.544 6.48399 34.4327 7.8428 34.4714 7.8563C34.9798 8.03215 35.5267 7.76543 35.7026 7.26097C35.8765 6.75652 35.6117 6.20567 35.1072 6.02982C35.0686 6.01632 31.2571 4.6846 27.4534 2.98179C23.0216 1.00066 20.5901 2.30529 17.1169 5.78049C15.7949 7.10251 13.9993 9.77745 14.4631 11.7393C14.6622 12.5742 15.2498 13.1928 16.1234 13.4807C18.3132 14.2036 20.3117 13.5116 21.8 11.5363C22.4146 11.4417 22.749 11.3025 23.2514 11.0764C23.4331 10.9952 23.6457 10.9005 23.9279 10.7865C25.0335 11.8244 26.5256 13.0323 28.097 14.3022C30.9381 16.6002 34.1601 19.2057 34.8849 20.7132C35.2425 21.4573 34.8578 21.9425 34.5969 22.1647C34.2142 22.4933 33.6905 22.5977 33.4063 22.3985C33.0932 22.184 32.6854 22.1705 32.3626 22.3638C32.0379 22.557 31.8563 22.9223 31.8969 23.2973C31.9626 23.9119 31.4001 24.2637 31.1566 24.3855C30.5381 24.6986 29.8925 24.6445 29.6509 24.4203C29.3803 24.169 28.9918 24.0956 28.6478 24.2231C28.3038 24.3526 28.0641 24.6696 28.0293 25.0368C27.9713 25.6707 27.5016 26.2795 26.8889 26.5173C26.5932 26.6293 26.1641 26.697 25.7795 26.3452C25.5399 26.1288 25.2074 26.0456 24.8963 26.121C24.5813 26.1983 24.328 26.4264 24.2179 26.7298C24.1812 26.8265 24.098 27.0584 23.1935 27.0584C22.5498 27.0584 21.3921 26.6236 20.8258 26.2486C20.1474 25.8021 15.8933 22.6285 12.2192 19.5515C11.7031 19.1166 10.8102 18.185 10.0216 17.3616C9.32191 16.631 8.68219 15.9681 8.35359 15.6898C7.94191 15.3419 7.33308 15.3941 6.99098 15.8038C6.64697 16.2116 6.69716 16.8224 7.10504 17.1664C7.40465 17.4197 7.98449 18.0323 8.62421 18.6991C9.48626 19.5998 10.3772 20.5314 10.9764 21.0339C14.5753 24.0472 18.9009 27.3001 19.7628 27.8663C20.4741 28.3341 22.0068 28.9912 23.1936 28.9912C24.1464 28.9912 24.879 28.7727 25.3872 28.3457C26.0675 28.6105 26.8407 28.6124 27.5848 28.3225C28.4642 27.9823 29.187 27.2962 29.5968 26.4651C30.3583 26.6274 31.2301 26.5134 32.0224 26.1153C32.7975 25.7249 33.358 25.1277 33.6363 24.4299C34.4056 24.4705 35.1979 24.1979 35.8532 23.6355C36.9627 22.6866 37.268 21.21 36.6264 19.8783Z" fill="#ACEFCA"/>
<path d="M19.3275 3.86523H10.63C10.0965 3.86523 9.66357 4.29821 9.66357 4.83166C9.66357 5.3651 10.0965 5.79808 10.63 5.79808H19.3275C19.861 5.79808 20.2939 5.3651 20.2939 4.83166C20.2939 4.29821 19.861 3.86523 19.3275 3.86523Z" fill="#ACEFCA"/>
<path d="M39.4575 17.8214C39.1579 17.3789 38.5588 17.2571 38.1162 17.5586L35.2905 19.4566C34.8479 19.7542 34.7299 20.3553 35.0276 20.7979C35.2151 21.0743 35.5205 21.2251 35.8317 21.2251C36.0154 21.2251 36.2028 21.1729 36.3691 21.0608L39.1948 19.1629C39.6372 18.8651 39.7551 18.2641 39.4575 17.8214Z" fill="#ACEFCA"/>
<path d="M33.4581 22.4331C32.7662 21.888 29.6718 18.7202 27.7584 16.7256C27.3892 16.339 26.7766 16.3255 26.3919 16.6966C26.0053 17.0658 25.9937 17.6784 26.3629 18.0631C26.8596 18.5811 31.2412 23.1483 32.2598 23.9523C32.4356 24.0915 32.6483 24.1592 32.857 24.1592C33.1411 24.1592 33.4253 24.0316 33.6185 23.79C33.9491 23.3724 33.8776 22.7636 33.4581 22.4331Z" fill="#ACEFCA"/>
<path d="M29.5967 24.3721C28.4389 23.4462 25.5301 20.3557 24.8729 19.6406C24.5095 19.2463 23.9007 19.2231 23.5064 19.5826C23.114 19.944 23.087 20.5567 23.4484 20.9491C23.4832 20.9858 26.9545 24.7335 28.3886 25.8816C28.5665 26.0227 28.781 26.0923 28.9916 26.0923C29.2739 26.0923 29.556 25.9666 29.7473 25.7309C30.0799 25.3133 30.0122 24.7045 29.5967 24.3721Z" fill="#ACEFCA"/>
<path d="M25.7504 26.3177C24.3723 25.1561 21.5524 22.1545 21.0015 21.565C20.6362 21.1746 20.0235 21.1533 19.635 21.5186C19.2446 21.8839 19.2252 22.4946 19.5886 22.8851C20.3811 23.7335 23.0792 26.5941 24.5037 27.7963C24.6854 27.9489 24.9057 28.0243 25.126 28.0243C25.4005 28.0243 25.675 27.9064 25.8663 27.6803C26.2103 27.2705 26.1582 26.6617 25.7504 26.3177Z" fill="#ACEFCA"/>
<path d="M11.2952 2.19698C9.63875 0.627535 3.01514 0.119183 1.0244 0.00131374C0.74998 -0.0121855 0.496755 0.0785953 0.303507 0.26224C0.110169 0.443891 0 0.699018 0 0.965742V18.3608C0 18.8942 0.432973 19.3272 0.966421 19.3272H6.76477C7.18225 19.3272 7.55334 19.0586 7.68281 18.6604C7.82387 18.2274 11.1541 8.00693 11.5928 2.98166C11.618 2.68785 11.5097 2.39793 11.2952 2.19698ZM6.05927 17.3945H1.93275V2.00174C5.03876 2.24718 8.39021 2.78062 9.60786 3.37206C9.0957 7.60485 6.77827 15.1253 6.05927 17.3945Z" fill="white"/>
<path d="M45.4203 1.93262C37.8321 1.93262 33.6225 3.87506 33.4467 3.95624C33.1954 4.07411 33.0079 4.29254 32.9306 4.55736C32.8533 4.82219 32.8919 5.10631 33.0369 5.34205C34.2313 7.26519 37.9713 17.9457 38.6903 20.5511C38.8062 20.9705 39.187 21.2604 39.6219 21.2604H45.4203C45.9537 21.2604 46.3867 20.8274 46.3867 20.294V2.89895C46.3867 2.3636 45.9537 1.93262 45.4203 1.93262ZM44.4539 19.3277H40.3448C39.4287 16.3434 36.7227 8.56203 35.2133 5.34594C36.6879 4.84538 39.8558 3.98523 44.4539 3.87706V19.3277Z" fill="white"/>
</svg>
