<svg width="39" height="39" viewBox="0 0 39 39" fill="none" xmlns="http://www.w3.org/2000/svg">
<path d="M37.7989 29.0157L32.1879 23.4023C31.4344 22.6526 30.4253 22.2395 29.347 22.2395C28.2249 22.2395 27.1655 22.6813 26.3644 23.4829L24.1802 25.6666C22.483 24.7232 20.2272 23.4257 17.8852 21.0837C15.5459 18.7436 14.2483 16.4944 13.3001 14.788L15.4863 12.6034C17.1118 10.9746 17.145 8.36146 15.5607 6.77859L9.95078 1.16852C9.19933 0.41499 8.19028 0 7.10929 0C6.01223 0 4.97444 0.422377 4.17802 1.19117C3.69622 1.57918 1.2784 3.71355 0.37727 8.11526C-0.884401 14.2763 2.01442 20.2042 10.383 28.5761C19.7313 37.9216 27.712 38.648 29.9353 38.648C30.3982 38.648 30.6775 38.6194 30.752 38.6107C35.1118 38.0997 36.6728 36.1635 37.8126 34.7498C39.2895 32.9175 39.2843 30.5066 37.7989 29.0157ZM35.9371 33.2377C34.8657 34.5665 33.854 35.8214 30.4717 36.218C30.47 36.2181 30.285 36.2388 29.9353 36.2388C27.9461 36.2388 20.7799 35.5634 12.0864 26.8727C4.36914 19.1522 1.66046 13.8577 2.73728 8.59835C3.52326 4.75905 5.60993 3.1272 5.69103 3.06521L5.76298 3.01205L5.8261 2.94877C6.17444 2.60075 6.63006 2.409 7.10913 2.409C7.54532 2.409 7.94874 2.57249 8.24617 2.87088L13.8574 8.48223C14.503 9.1272 14.4686 10.2125 13.7817 10.9009L11.3093 13.3712L11.2687 13.4138C10.6243 14.1235 10.7001 15.0826 11.0551 15.7071C12.0792 17.5553 13.482 20.0865 16.1814 22.7867C18.8718 25.4771 21.3993 26.8788 23.2423 27.901C23.4269 28.0046 23.8078 28.1783 24.2846 28.1783C24.8477 28.1783 25.3647 27.94 25.7474 27.5056L28.0677 25.1859C28.4141 24.8393 28.8683 24.6484 29.3467 24.6484C29.7839 24.6484 30.1894 24.8123 30.4862 25.1075L36.0935 30.7173C36.8058 31.4321 36.5117 32.525 35.9371 33.2377Z" fill="#ACEFCA"/>
<path d="M23.6142 5.90218C25.6839 6.14035 28.1208 7.39399 29.8225 9.09587C31.5401 10.8135 32.7968 13.2752 33.0238 15.3673C33.0907 15.9845 33.6127 16.4419 34.2197 16.4419C34.2631 16.4419 34.3071 16.4395 34.3511 16.4348C35.0125 16.363 35.4904 15.7688 35.4186 15.1074C35.1316 12.4628 33.64 9.50668 31.526 7.39255C29.4318 5.29817 26.5058 3.81021 23.8897 3.50909C23.2291 3.43248 22.6315 3.90721 22.5554 4.56792C22.4793 5.22863 22.9532 5.82606 23.6142 5.90218Z" fill="white"/>
<path d="M22.4889 10.9473C23.6082 11.0763 25.1574 11.9066 26.1722 12.9214C27.1957 13.9451 28.0276 15.509 28.1502 16.6404C28.2171 17.2578 28.7391 17.7152 29.3461 17.7152C29.3895 17.7152 29.4334 17.7128 29.4774 17.7081C30.1387 17.6363 30.6168 17.0421 30.545 16.3807C30.3356 14.449 29.0532 12.3958 27.8754 11.2179C26.7081 10.0505 24.6749 8.77425 22.7643 8.55407C22.1028 8.47714 21.506 8.95204 21.4299 9.61274C21.3539 10.2736 21.828 10.8712 22.4889 10.9473Z" fill="white"/>
</svg>
