<svg width="36" height="36" viewBox="0 0 36 36" fill="none" xmlns="http://www.w3.org/2000/svg">
<path d="M9.98546 30.0644C9.89649 29.6847 9.51678 29.4495 9.13707 29.5382C8.75763 29.6272 8.52192 30.0069 8.61117 30.3866L8.61774 30.4154C8.69412 30.7406 8.98403 30.9602 9.30434 30.9602C9.35772 30.9602 9.41193 30.9541 9.46613 30.9416C9.84584 30.8526 10.0813 30.4726 9.99231 30.0932L9.98546 30.0644Z" fill="#42D38A"/>
<path d="M35.1425 16.5091C34.6054 16.0136 33.8747 15.7075 33.1377 15.6692C32.3008 15.6259 31.5168 15.9243 30.9328 16.5085L26.943 20.4565C26.8642 20.3199 26.7741 20.1909 26.6731 20.0713C26.1822 19.4884 25.4644 19.1676 24.6521 19.1676H19.0668C18.0136 19.1676 16.9862 19.031 16.0132 18.7619C13.4766 18.0602 11.0532 18.5727 9.00462 20.2449C8.17155 20.9249 7.5638 21.6646 7.17943 22.2039L6.178 21.232C6.04632 21.1042 5.86783 21.0316 5.68413 21.0316C5.68249 21.0316 5.68112 21.0316 5.67948 21.0316C5.48921 21.033 5.30524 21.1121 5.17329 21.249L0.304945 26.303C0.174633 26.4382 0.103728 26.62 0.107835 26.8078C0.111941 26.9959 0.190512 27.1744 0.326572 27.3039L8.56057 35.1442C8.69718 35.2742 8.87239 35.3391 9.04732 35.3391C9.23102 35.3391 9.41472 35.2677 9.55297 35.1258L14.3759 30.1778C14.5075 30.0426 14.5806 29.8578 14.5771 29.6689C14.5735 29.4827 14.4955 29.3032 14.3619 29.1734L13.9419 28.766L14.9031 28.6579C15.4846 28.5903 16.0759 28.5561 16.6612 28.5561H25.1592C26.54 28.5561 27.7128 28.2541 28.6453 27.6584C28.6529 27.6535 28.6606 27.6483 28.6683 27.643C29.0023 27.4109 29.3053 27.1358 29.5687 26.8256L35.2953 20.0885C36.2753 18.9357 36.214 17.4971 35.1425 16.5091ZM9.02898 33.6409L1.81421 26.7711L5.70083 22.7361L12.8735 29.6966L9.02898 33.6409ZM34.2197 19.1742L28.4931 25.9115C28.3113 26.1253 28.1029 26.3153 27.8733 26.4763C27.1732 26.9195 26.2602 27.1445 25.1592 27.1445H16.661C16.0217 27.1445 15.3754 27.182 14.7427 27.2557L12.6298 27.4928L8.20577 23.1996C8.51321 22.7438 9.07853 22.0071 9.89736 21.3385C11.5996 19.9489 13.5308 19.5396 15.6368 20.1225C16.7324 20.4255 17.8863 20.5794 19.0668 20.5794H24.6521C25.6552 20.5794 25.923 21.4483 25.923 21.9616C25.923 22.3367 25.8025 22.6937 25.5925 22.9412C25.3648 23.2092 25.0409 23.345 24.63 23.345H19.7679C19.3781 23.345 19.0622 23.6612 19.0622 24.051C19.0622 24.4408 19.3781 24.7568 19.7679 24.7568H24.63C25.4507 24.7568 26.1745 24.4365 26.6684 23.855C27.0793 23.3715 27.3137 22.7358 27.3334 22.0563L31.9285 17.5094C32.5853 16.8526 33.6113 17.0174 34.1854 17.5469C34.4822 17.8207 34.8813 18.3958 34.2197 19.1742Z" fill="white"/>
<path d="M4.87866 14.8928H11.7567C12.1312 14.8928 12.4778 14.7712 12.7598 14.5659C13.0418 14.7712 13.3883 14.8928 13.7629 14.8928H20.6412C21.0157 14.8928 21.3623 14.7712 21.6442 14.5659C21.9262 14.7712 22.2728 14.8928 22.6473 14.8928H29.5254C30.4677 14.8928 31.2342 14.1259 31.2342 13.1837V9.97623C31.2342 8.53569 30.428 7.28431 29.2212 6.66697C29.806 5.96176 30.158 5.05724 30.158 4.07169C30.158 1.82655 28.3315 0 26.0863 0C23.8412 0 22.0146 1.82655 22.0146 4.07169C22.0146 5.05724 22.3667 5.96203 22.9515 6.66697C22.4299 6.93417 21.9834 7.3199 21.6442 7.78776C21.305 7.31963 20.8585 6.93389 20.3367 6.66697C20.9215 5.96203 21.2736 5.05724 21.2736 4.07169C21.2736 1.82655 19.447 0 17.2019 0C14.9567 0 13.1302 1.82655 13.1302 4.07169C13.1302 5.05724 13.4825 5.96203 14.0673 6.66725C13.5455 6.93417 13.099 7.3199 12.7598 7.78804C12.4206 7.3199 11.9741 6.93417 11.4523 6.66697C12.037 5.96203 12.3891 5.05724 12.3891 4.07197C12.3891 1.82655 10.5626 0 8.31741 0C6.07255 0 4.246 1.82655 4.246 4.07197C4.246 5.05724 4.59806 5.96203 5.18282 6.66725C3.97606 7.28459 3.16956 8.53623 3.16956 9.97651V13.1837C3.16956 14.1259 3.93637 14.8928 4.87866 14.8928ZM26.0866 1.4118C27.5532 1.4118 28.7465 2.60486 28.7465 4.07169C28.7465 5.53825 27.5532 6.73158 26.0866 6.73158C24.6198 6.73158 23.4267 5.53852 23.4267 4.07169C23.4264 2.60486 24.6198 1.4118 26.0866 1.4118ZM24.2527 7.70536C24.8043 7.98487 25.4271 8.14338 26.0863 8.14338C26.7458 8.14338 27.3686 7.98487 27.92 7.70536C29.017 7.89645 29.8227 8.84176 29.8227 9.97623V13.1837C29.8227 13.3476 29.6893 13.481 29.5254 13.481H22.6473C22.4836 13.481 22.3503 13.3476 22.3503 13.1837V9.97623C22.35 8.84203 23.156 7.89645 24.2527 7.70536ZM17.2021 1.4118C18.6687 1.4118 19.862 2.60486 19.862 4.07169C19.862 5.53825 18.6687 6.73158 17.2021 6.73158C15.7353 6.73158 14.5423 5.53852 14.5423 4.07169C14.5423 2.60486 15.7353 1.4118 17.2021 1.4118ZM15.3685 7.70536C15.9198 7.98487 16.5427 8.14338 17.2021 8.14338C17.8616 8.14338 18.4842 7.98487 19.0358 7.70536C20.1325 7.89645 20.9385 8.84176 20.9385 9.97623V13.1837C20.9385 13.3476 20.8052 13.481 20.6412 13.481H13.7631C13.5991 13.481 13.4658 13.3476 13.4658 13.1837V9.97623C13.4658 8.84203 14.2718 7.89645 15.3685 7.70536ZM8.31769 1.4118C9.78424 1.4118 10.9776 2.60486 10.9776 4.07169C10.9776 5.53825 9.78424 6.73158 8.31769 6.73158C6.85113 6.73158 5.6578 5.53825 5.6578 4.07169C5.6578 2.60486 6.85113 1.4118 8.31769 1.4118ZM4.58136 9.97623C4.58136 8.84203 5.38732 7.89645 6.48402 7.70536C7.03565 7.98487 7.65819 8.14338 8.31769 8.14338C8.97718 8.14338 9.59972 7.98487 10.1514 7.70536C11.2483 7.89645 12.054 8.84176 12.054 9.97623V13.1837C12.054 13.3476 11.9207 13.481 11.7567 13.481H4.87866C4.71468 13.481 4.58136 13.3476 4.58136 13.1837V9.97623Z" fill="#ACEFCA"/>
</svg>
