<svg width="88" height="61" viewBox="0 0 88 61" fill="none" xmlns="http://www.w3.org/2000/svg">
<rect x="9.30054" y="17.2617" width="16.3685" height="43.1534" rx="3" fill="#4A7E80"/>
<rect x="31.9187" y="9.52344" width="16.3685" height="50.8912" rx="3" fill="#4A7E80"/>
<rect x="54.5371" width="16.3685" height="60.4147" rx="3" fill="#4A7E80"/>
<path d="M87.4141 11.6176L73.0891 13.3862L81.7832 24.9077L87.4141 11.6176ZM1.11755 55.6715C0.628693 56.159 0.627563 56.9504 1.11502 57.4393C1.60248 57.9281 2.39394 57.9292 2.88279 57.4418L1.11755 55.6715ZM38.0867 28.8974L38.5315 27.7292L38.0867 28.8974ZM77.681 17.3962L59.3131 31.2566L60.8189 33.2522L79.1868 19.3918L77.681 17.3962ZM50.9292 32.4494L38.5315 27.7292L37.6419 30.0656L50.0396 34.7858L50.9292 32.4494ZM26.585 30.2767L1.11755 55.6715L2.88279 57.4418L28.3503 32.047L26.585 30.2767ZM38.5315 27.7292C34.3949 26.1543 29.7193 27.1514 26.585 30.2767L28.3503 32.047C30.788 29.6162 34.4246 28.8407 37.6419 30.0656L38.5315 27.7292ZM59.3131 31.2566C56.9098 33.0701 53.7429 33.5207 50.9292 32.4494L50.0396 34.7858C53.6573 36.1631 57.729 35.5838 60.8189 33.2522L59.3131 31.2566Z" fill="#42D38A"/>
</svg>
