<svg width="38" height="37" viewBox="0 0 38 37" fill="none" xmlns="http://www.w3.org/2000/svg">
<path d="M35.4263 14.4018C34.9866 14.0461 34.255 13.4527 34.1633 13.1715C34.0702 12.8794 34.3109 11.9396 34.4554 11.3804C34.8018 10.0304 35.2337 8.35112 34.2659 7.02916C33.3028 5.71652 31.5707 5.60154 30.1788 5.50829C29.6024 5.46791 28.6362 5.40418 28.3923 5.22709C28.1453 5.04845 27.774 4.13346 27.5519 3.58507C27.0035 2.22581 26.3791 0.684757 24.8551 0.193857C23.339 -0.301669 21.9533 0.576019 20.7338 1.34805C20.1963 1.68667 19.3869 2.19938 19.0483 2.19938C18.7236 2.19938 17.9236 1.67896 17.3924 1.3341C16.2195 0.57132 14.7531 -0.373182 13.2074 0.151933C11.6865 0.669265 11.0683 2.20092 10.5199 3.54932C10.2993 4.09301 9.93267 5.00021 9.68106 5.18509C9.43561 5.36681 8.45226 5.43208 7.86503 5.47092C6.39703 5.57033 4.73329 5.68223 3.79811 7.00573C2.88004 8.30597 3.29165 9.90914 3.65516 11.3243C3.79811 11.8867 4.04041 12.8281 3.9534 13.1092C3.86023 13.378 3.13629 13.973 2.70442 14.3287C1.61219 15.2299 0.25293 16.3499 0.25293 18.0276C0.25293 19.6945 1.58583 20.8021 2.65611 21.6907C3.12057 22.0759 3.82117 22.6584 3.91596 22.9474C4.00913 23.2333 3.76684 24.1622 3.6208 24.7168C3.26661 26.0792 2.82388 27.7756 3.82895 29.1084C4.80921 30.404 6.53353 30.5189 7.92076 30.6122C8.49712 30.6526 9.46182 30.7147 9.70727 30.8934C9.95272 31.0721 10.3225 31.9855 10.5446 32.5339C11.0945 33.8931 11.7174 35.4342 13.2429 35.9266C13.5489 36.0276 13.8519 36.0711 14.147 36.0711C15.3152 36.0711 16.3933 35.3876 17.3658 34.7755C17.9017 34.4369 18.7095 33.9242 19.0482 33.9242C19.3791 33.9242 20.1744 34.4306 20.6995 34.7662C21.8646 35.5071 23.3186 36.4362 24.8612 35.908C26.3805 35.3906 26.9987 33.8605 27.5471 32.509C27.7677 31.9669 28.1344 31.0581 28.386 30.8733C28.633 30.6915 29.6101 30.6263 30.1942 30.5874C31.6514 30.488 33.3042 30.3777 34.2534 29.0743C35.2088 27.7648 34.7987 26.1445 34.4368 24.7169C34.2954 24.1592 34.0593 23.2287 34.1447 22.949C34.2379 22.6803 34.9618 22.0853 35.3921 21.7296C36.4858 20.8285 37.845 19.7069 37.845 18.0292C37.845 16.3654 36.5029 15.2764 35.4263 14.4018ZM33.4177 19.3341C32.5089 20.0813 31.569 20.8565 31.1993 21.9672C30.8218 23.0982 31.1294 24.3098 31.4261 25.4811C31.5706 26.0528 31.8129 27.0082 31.7803 27.2055C31.5442 27.3826 30.5701 27.4494 29.9876 27.4867C28.8334 27.5644 27.5254 27.6514 26.5514 28.3659C25.5867 29.0727 25.1191 30.2269 24.667 31.3424C24.4464 31.8923 24.0736 32.8134 23.9198 32.9533C23.637 32.9533 22.8464 32.4453 22.3726 32.144C21.3955 31.5226 20.2878 30.8158 19.0497 30.8158C17.8101 30.8158 16.6931 31.5242 15.7051 32.1487C15.2266 32.4501 14.4251 32.9596 14.2542 32.9968C14.0135 32.8244 13.6468 31.9141 13.4262 31.3704C12.9696 30.241 12.4973 29.0744 11.5233 28.3738C10.5555 27.6762 9.32202 27.5939 8.12744 27.5147C7.56665 27.4774 6.52119 27.4075 6.33161 27.2786C6.23529 27.0036 6.47919 26.0638 6.62677 25.5046C6.91414 24.3969 7.24197 23.1418 6.87222 21.9953C6.50093 20.8504 5.5145 20.0286 4.64298 19.3047C4.21735 18.9505 3.42351 18.2903 3.3567 18.0511C3.4266 17.759 4.24217 17.0864 4.68021 16.7276C5.58895 15.9788 6.52883 15.2036 6.89858 14.0929C7.2792 12.9542 6.96539 11.7332 6.664 10.5525C6.51796 9.98241 6.27251 9.02859 6.29116 8.84687C6.52883 8.67601 7.49506 8.61074 8.07297 8.5719C9.28619 8.49114 10.543 8.40567 11.517 7.69267C12.4817 6.98584 12.9493 5.83318 13.4014 4.71783C13.6219 4.16636 13.9964 3.24667 14.1392 3.10842C14.4266 3.11304 15.2251 3.63192 15.702 3.9411C16.6869 4.58112 17.8054 5.3066 19.0497 5.3066C20.2878 5.3066 21.4079 4.59823 22.3928 3.97531C22.8713 3.67237 23.6728 3.16444 23.8437 3.12714C24.0829 3.29961 24.4511 4.2099 24.6717 4.75359C25.1284 5.88142 25.6006 7.04803 26.5747 7.74862C27.5424 8.44767 28.7775 8.52998 29.9737 8.6092C30.564 8.64958 31.5536 8.7164 31.7384 8.82822C31.8331 9.10164 31.5923 10.0461 31.4463 10.6085C31.162 11.7208 30.8389 12.9806 31.2102 14.1302C31.5845 15.2875 32.5865 16.0999 33.4705 16.8161C33.8744 17.1454 34.6185 17.7466 34.7334 18.0356C34.6232 18.3384 33.8418 18.983 33.4177 19.3341Z" fill="white"/>
<path d="M25.9952 12.1754C25.3334 11.6224 24.3562 11.7125 23.8079 12.3697L16.8811 20.6511L13.9341 17.7058C13.3267 17.0984 12.3449 17.0984 11.7375 17.7058C11.1301 18.3132 11.1301 19.295 11.7375 19.9024L15.8853 24.0501C16.1758 24.3438 16.5719 24.5053 16.9836 24.5053C17.0054 24.5053 17.0287 24.5053 17.0504 24.5022C17.4885 24.4836 17.894 24.2816 18.1736 23.9476L26.1893 14.3627C26.7392 13.7041 26.6538 12.7254 25.9952 12.1754Z" fill="#ACEFCA"/>
</svg>
