<svg width="32" height="37" viewBox="0 0 32 37" fill="none" xmlns="http://www.w3.org/2000/svg">
<path d="M16.0138 0C11.7903 2.29941 6.07936 4.23132 1.20919 4.23132H0.151733V5.28878C0.151733 14.203 1.99002 23.6594 7.81359 30.3538C9.9374 32.7951 12.9456 35.1741 16.0136 36.0981C19.0865 35.1727 22.0832 32.8028 24.2137 30.3538C30.0414 23.6546 31.8755 14.1928 31.8755 5.28878V4.23132H30.8181C25.9972 4.23132 20.2995 2.33346 16.0138 0V0ZM22.7157 28.8527C19.8419 32.202 16.9333 33.5199 16.0139 33.8751C15.0907 33.5182 12.1837 32.2 9.31166 28.8527C6.18588 25.2097 2.47624 18.3674 2.27525 6.32044C8.44116 6.02512 14.2767 3.28588 16.0137 2.40142C17.7508 3.28588 23.5862 6.02512 29.7522 6.32044C29.551 18.3674 25.8414 25.2097 22.7157 28.8527Z" fill="#42D38A"/>
<path d="M6.49658 15.9343C6.49658 21.1821 10.766 25.4515 16.0137 25.4515C21.2615 25.4515 25.5309 21.1821 25.5309 15.9343C25.5309 10.6477 21.2615 6.34668 16.0137 6.34668C10.766 6.34668 6.49658 10.6477 6.49658 15.9343ZM23.4159 15.9343C23.4159 20.0159 20.0953 23.3365 16.0137 23.3365C11.9321 23.3365 8.6115 20.0159 8.6115 15.9343C8.6115 11.8139 11.9321 8.4616 16.0137 8.4616C20.0953 8.4616 23.4159 11.8139 23.4159 15.9343Z" fill="white"/>
<path d="M12.5315 15.1863L11.036 16.6818L14.9611 20.6069L20.9961 14.4914L19.4908 13.0059L14.9511 17.606L12.5315 15.1863Z" fill="#ACEFCA"/>
</svg>
