<svg width="42" height="31" viewBox="0 0 42 31" fill="none" xmlns="http://www.w3.org/2000/svg">
<path d="M32.7222 12.0992V3.44447C32.7222 1.54483 31.1774 0 29.2777 0H3.44439C1.54475 0 0 1.54475 0 3.44447V20.6667C0 22.5663 1.54475 24.1111 3.44447 24.1111H22.7561C23.8844 28.0808 27.5345 31 31.8611 31C33.5262 31 35.1634 30.5619 36.5981 29.7319C37.0093 29.4939 37.1506 28.9675 36.9117 28.5554C36.6737 28.1434 36.1465 28.0012 35.7353 28.2418C34.563 28.9196 33.2234 29.2778 31.8611 29.2778C27.5874 29.2778 24.1111 25.8014 24.1111 21.5278C24.1111 17.2542 27.5875 13.7778 31.8611 13.7778C36.1346 13.7778 39.6111 17.2542 39.6111 21.5278V22.3889C39.6111 23.3383 38.8382 24.1111 37.8889 24.1111C36.9395 24.1111 36.1667 23.3383 36.1667 22.3889V18.9445C36.1667 18.4685 35.7815 18.0833 35.3055 18.0833C35.0739 18.0833 34.8658 18.1771 34.7112 18.3255C33.9501 17.6473 32.9582 17.2222 31.8611 17.2222C29.4871 17.2222 27.5555 19.1538 27.5555 21.5277C27.5555 23.9016 29.4871 25.8333 31.8611 25.8333C33.1444 25.8333 34.2854 25.2577 35.075 24.3639C35.6988 25.2501 36.7251 25.8333 37.8889 25.8333C39.7886 25.8333 41.3333 24.2886 41.3333 22.3889V21.5277C41.3333 16.5954 37.5426 12.5363 32.7222 12.0992ZM3.44447 1.7222H29.2778C29.3137 1.7222 29.3437 1.74052 29.379 1.7427L17.0692 11.847C16.6311 12.1229 15.9962 12.0656 15.7111 11.8908L3.34429 1.74254C3.37924 1.74044 3.40895 1.7222 3.44447 1.7222ZM31 12.0992C26.1796 12.5363 22.3889 16.5954 22.3889 21.5278C22.3889 21.8184 22.4067 22.1049 22.4325 22.3889H3.44447C2.4951 22.3889 1.72228 21.6161 1.72228 20.6667V3.44447C1.72228 3.20059 1.77612 2.97027 1.86799 2.75989L14.6945 13.2783C15.1957 13.6054 15.7717 13.7779 16.3612 13.7779C16.928 13.7779 17.4821 13.6181 17.9699 13.3154C18.0187 13.2893 18.0649 13.2582 18.1087 13.2221L30.8542 2.75973C30.9462 2.97027 31.0001 3.20059 31.0001 3.44455V12.0992H31ZM31.8611 24.1111C30.4366 24.1111 29.2778 22.9524 29.2778 21.5278C29.2778 20.1033 30.4366 18.9445 31.8611 18.9445C33.2857 18.9445 34.4445 20.1033 34.4445 21.5278C34.4445 22.9524 33.2857 24.1111 31.8611 24.1111Z" fill="white"/>
<path d="M2 1.5L16.5 13L31 1.5" stroke="#ACEFCA" stroke-width="2.6" stroke-linecap="round"/>
</svg>
