<svg width="83" height="61" viewBox="0 0 83 61" fill="none" xmlns="http://www.w3.org/2000/svg">
<path d="M8.14688 38.5922H1.28641C0.940613 38.5922 0.622482 38.4539 0.373512 38.2188C0.12455 37.9698 6.86646e-05 37.6517 6.86646e-05 37.3059V19.7812C6.86646e-05 19.4355 0.138374 19.1173 0.373512 18.8684C0.622482 18.6194 0.940613 18.4949 1.28641 18.4949H7.46914C8.2852 16.7798 9.32257 15.1615 10.5536 13.6262C10.3323 13.0867 7.46913 6.39225 5.3529 2.2151C4.48151 1.70333 14.8829 -3.60801 23.417 4.31751C28.0644 2.40874 33.3342 1.31605 38.9222 1.31605C57.4981 1.31605 72.5469 13.2112 72.5469 27.8866C72.5469 28.2877 72.533 28.6888 72.5054 29.0761C72.6714 29.7123 73.1001 30.2933 73.7226 30.7635C73.9854 30.9572 74.3035 31.137 74.6216 31.2753C74.4833 30.9849 74.4141 30.6667 74.4141 30.3348C74.4141 29.657 74.7184 29.0484 75.2025 28.6335C75.6866 28.2047 76.3367 27.9557 77.0421 27.9557C77.7476 27.9557 78.3976 28.2047 78.8679 28.6335C79.352 29.0623 79.6563 29.6709 79.6563 30.3348C79.6563 30.6667 79.5733 30.9987 79.435 31.2753C79.767 31.1232 80.0713 30.9572 80.3479 30.7635C81.1778 30.1273 81.6481 29.2974 81.6481 28.4122H82.5886C82.5886 29.6432 81.9247 30.7359 80.915 31.4966C79.9053 32.2574 78.536 32.7138 77.0421 32.7138C75.5483 32.7138 74.179 32.2574 73.1693 31.4966C72.865 31.2615 72.6022 30.9849 72.3671 30.6944C71.6478 36.0887 68.8815 41.0128 64.6905 44.9548L65.9769 57.9842C66.046 58.6619 65.6172 59.2982 64.9671 59.478L60.3336 60.8196C59.6835 61.0133 58.9919 60.709 58.6876 60.1142L54.2477 51.5386C49.6556 53.4059 44.441 54.4571 38.9222 54.4571C33.7492 54.4571 28.839 53.5304 24.4544 51.8706L20.1942 60.1142C19.8899 60.709 19.1983 61.0133 18.5483 60.8196L13.9285 59.478C13.2646 59.2843 12.8496 58.6619 12.9188 57.9842L14.1221 45.8123C11.6601 43.6961 9.64069 41.2617 8.14688 38.5922ZM75.825 31.3583C76.1293 31.6349 76.558 31.8009 77.0421 31.8009C77.5263 31.8009 77.955 31.6211 78.2593 31.3583C78.5636 31.0817 78.7296 30.7359 78.7296 30.3486C78.7296 29.9613 78.5498 29.6017 78.2593 29.3389C77.955 29.0623 77.5263 28.8963 77.0421 28.8963C76.558 28.8963 76.1293 29.0761 75.825 29.3389C75.5207 29.6155 75.3409 29.9613 75.3409 30.3486C75.3547 30.7359 75.5207 31.0817 75.825 31.3583ZM23.7213 9.22773L25.4226 13.1974C25.4779 13.3357 25.6024 13.4602 25.7407 13.5155C25.8928 13.5709 26.045 13.5709 26.1971 13.5155L28.1751 12.6718H28.1889L28.2166 12.658L28.341 12.6026C28.4655 12.5473 28.6592 12.4782 28.922 12.3813C29.4476 12.2015 30.2221 11.9387 31.1765 11.6898C33.0853 11.178 35.741 10.68 38.5488 10.68C41.2874 10.68 44.0676 11.1642 46.1838 11.6621C48.3001 12.16 49.7524 12.6856 49.8492 12.7271H49.863L51.8824 13.4464C52.1867 13.557 52.5325 13.4049 52.6432 13.1006L54.137 9.04792C54.2477 8.74362 54.0955 8.39783 53.7912 8.28718L51.7718 7.54027C51.6888 7.51261 50.112 6.93168 47.6915 6.33692C45.2709 5.75599 42.0205 5.1474 38.5626 5.1474C35.16 5.1474 32.1171 5.72833 29.8763 6.32309C27.6356 6.90402 26.1971 7.52644 26.045 7.58177L26.0173 7.5956L24.0394 8.43932C23.8873 8.50848 23.7766 8.61914 23.7213 8.75745C23.666 8.92343 23.666 9.07558 23.7213 9.22773Z" fill="#4A7E81"/>
<path d="M25.947 13.6399C25.8065 13.7104 25.6379 13.7104 25.4833 13.6399C25.3427 13.5834 25.2162 13.4705 25.16 13.3153L23.4314 9.26565C23.3752 9.12454 23.3752 8.95522 23.4314 8.8C23.4876 8.64479 23.6001 8.5319 23.7547 8.47546L25.7643 7.61473L25.7924 7.60062C25.947 7.54418 27.4227 6.92332 29.6853 6.31657C31.962 5.70982 35.0538 5.1313 38.511 5.11719C42.0244 5.11719 45.327 5.72394 47.7864 6.33068C50.2458 6.92332 51.862 7.53007 51.9323 7.55829L53.9841 8.32025C54.2933 8.43313 54.4479 8.78589 54.3354 9.09632L52.8176 13.2307C52.7052 13.5411 52.3539 13.6963 52.0447 13.5834L49.9929 12.8215H49.9788C49.8804 12.7791 48.4048 12.2571 46.2546 11.735C44.1044 11.227 41.2796 10.7331 38.497 10.7331C35.63 10.7331 32.9458 11.2411 31.0063 11.7632C30.0366 12.0313 29.2496 12.2853 28.7156 12.4687C28.4486 12.5675 28.2518 12.638 28.1253 12.6945L27.9989 12.7509L27.9708 12.765H27.9567L25.947 13.6399ZM28.3221 11.354C28.8702 11.1564 29.6994 10.8883 30.6972 10.6202C32.7209 10.084 35.5035 9.54785 38.497 9.54785C41.4201 9.54785 44.3152 10.0558 46.5357 10.5779C48.728 11.1 50.2177 11.6362 50.4004 11.7067H50.4145L51.9042 12.2571L53.0144 9.26565L51.5247 8.71534C51.4825 8.70123 49.9085 8.10859 47.5054 7.53007C45.1022 6.95154 41.8839 6.3589 38.511 6.3589C35.1381 6.3589 32.1025 6.95154 29.8821 7.54418C28.7718 7.8405 27.8724 8.13681 27.254 8.36258C26.9448 8.47546 26.6919 8.57424 26.5232 8.64479L26.3265 8.72945L26.2422 8.75767L24.7806 9.35031L26.0314 12.2853L27.4929 11.6644L27.521 11.6503L27.5351 11.6362L27.6756 11.5798C27.8162 11.5233 28.041 11.4528 28.3221 11.354Z" fill="#ACEFCA"/>
</svg>
