<svg width="69" height="69" viewBox="0 0 69 69" fill="none" xmlns="http://www.w3.org/2000/svg">
<path d="M0 34.0698C0 52.8363 15.2629 68.1395 34.0698 68.1395C52.8363 68.1395 68.1395 52.8766 68.1395 34.0698C68.1395 15.2629 52.8363 0 34.0698 0C15.3032 0 0 15.2629 0 34.0698ZM60.6087 34.0698C60.6087 48.5272 48.8897 60.2463 34.4322 60.2463C19.9747 60.2463 8.25567 48.5272 8.25567 34.0698C8.25567 19.6123 19.9747 7.89323 34.4322 7.89323C48.8897 7.89323 60.6087 19.6123 60.6087 34.0698Z" fill="#026163"/>
<path d="M33.5059 54.0428H36.486C37.372 54.0428 38.1371 53.3179 38.1371 52.3916V49.6129C40.5534 49.2505 42.6476 48.5256 44.4195 47.3577C47.2385 45.5052 48.648 42.9681 48.7286 39.7061C48.7688 37.6925 48.205 35.9608 47.0372 34.5513C45.1444 32.2961 42.2046 30.8866 38.1774 30.3228V24.6848C38.9023 25.007 39.5869 25.45 40.2313 26.0138C40.634 26.3359 41.1172 26.5373 41.6408 26.5373C42.0837 26.5373 42.6475 26.2554 42.6475 26.2554L45.9901 24.1613C46.4331 23.8794 46.6747 23.5169 46.6747 23.0337C46.6747 22.6712 46.5136 22.3491 46.2317 22.0671C44.1376 19.6911 41.4394 18.2011 38.1371 17.6373V14.4558C38.1371 13.5698 37.4122 12.8047 36.486 12.8047H33.5059C32.6199 12.8047 31.8548 13.5296 31.8548 14.4558V17.5567C30.2842 17.7581 28.9149 18.1608 27.6665 18.7246C23.6394 20.5771 21.6661 23.3156 21.7063 26.94C21.7466 28.7522 22.2701 30.3228 23.3172 31.6921C25.0891 34.0278 27.9082 35.5179 31.8548 36.1219V43.1695C30.1634 42.5654 28.5525 41.4378 27.0222 39.8269C26.7 39.3839 26.257 39.1826 25.6932 39.1826L24.8072 39.4242L21.7466 41.2364C21.2231 41.5586 20.9814 41.921 20.9814 42.4446L21.3439 43.3305C22.1493 44.4581 23.1964 45.5052 24.5656 46.512C26.7403 48.1631 29.1566 49.2102 31.895 49.6532V52.4319C31.8548 53.3179 32.6199 54.0428 33.5059 54.0428ZM38.1371 36.8871C39.748 37.4106 40.5937 38.3369 40.5534 39.7061C40.5534 40.9948 39.9494 42.0016 38.7815 42.6862L38.1371 43.0486V36.8871ZM29.8815 26.9803C29.8815 25.9735 30.4453 25.1681 31.6131 24.6445L31.8548 24.564V29.5577C30.5661 29.0341 29.8815 28.1482 29.8815 26.9803Z" fill="white"/>
<path d="M29.8813 26.981C29.8813 28.1891 30.566 29.0348 31.8547 29.5584V24.5244L31.613 24.605C30.4451 25.1688 29.8813 25.9742 29.8813 26.981Z" fill="#ACEFCA"/>
<path d="M38.1367 43.0893L38.7811 42.7268C39.9489 42.002 40.553 41.0354 40.553 39.7467C40.553 38.3775 39.7476 37.411 38.1367 36.9277V43.0893Z" fill="#ACEFCA"/>
<path d="M8.25537 34.0711C8.25537 48.5285 19.9744 60.2476 34.4319 60.2476C48.8894 60.2476 60.6084 48.5285 60.6084 34.0711C60.6084 19.6136 48.8894 7.89453 34.4319 7.89453C19.9744 7.89453 8.25537 19.6136 8.25537 34.0711ZM38.1369 14.4588V17.6403C41.4392 18.2041 44.1374 19.6941 46.2315 22.0701C46.5536 22.352 46.6744 22.6742 46.6744 23.0366C46.6744 23.4796 46.4328 23.8421 45.9898 24.1642L42.6473 26.2584C42.6473 26.2584 42.0432 26.5403 41.6405 26.5403C41.117 26.5403 40.6337 26.3792 40.231 26.0167C39.5867 25.4529 38.902 25.0099 38.1772 24.6878V30.3258C42.2043 30.8896 45.1441 32.2991 47.0369 34.5543C48.2048 35.9638 48.7686 37.6955 48.7283 39.7091C48.6478 42.9711 47.2383 45.5082 44.4193 47.3607C42.6473 48.5285 40.5532 49.2937 38.1369 49.6159V52.3946C38.1369 53.2806 37.412 54.0458 36.4857 54.0458H33.5057C32.6197 54.0458 31.8545 53.3209 31.8545 52.3946V49.6159C29.1563 49.1729 26.6997 48.1661 24.5251 46.4747C23.1961 45.4679 22.1088 44.3806 21.3034 43.2932L20.9409 42.4073C20.9409 41.924 21.1825 41.5213 21.7061 41.1991L24.7667 39.3869L25.6527 39.1453C26.2165 39.1453 26.6595 39.3466 26.9817 39.7896C28.512 41.4408 30.0826 42.5281 31.8142 43.1322V36.1249C27.8676 35.5208 25.0486 34.0308 23.2767 31.695C22.2296 30.3258 21.7061 28.7149 21.6658 26.943C21.5853 23.3185 23.5586 20.5398 27.626 18.7276C28.8744 18.1638 30.2839 17.7611 31.8142 17.5597V14.4588C31.8142 13.5728 32.5391 12.8077 33.4654 12.8077H36.4455C37.412 12.8077 38.1369 13.5326 38.1369 14.4588Z" fill="#ACEFCA"/>
</svg>
