<?xml version="1.0" encoding="utf-8"?>
<!-- Generator: Adobe Illustrator 24.0.3, SVG Export Plug-In . SVG Version: 6.00 Build 0)  -->
<svg version="1.1" id="Layer_1" xmlns="http://www.w3.org/2000/svg" xmlns:xlink="http://www.w3.org/1999/xlink" x="0px" y="0px"
	 viewBox="0 0 131.6 112" style="enable-background:new 0 0 131.6 112;" xml:space="preserve">
<style type="text/css">
	.st0{fill:#EFEFEF;}
	.st1{fill:#CBD5F7;}
	.st2{fill:#FFFFFF;}
	.st3{fill:#C4CCF2;}
	.st4{fill:#FEFEFE;}
	.st5{fill:#87A3E8;}
	.st6{fill-rule:evenodd;clip-rule:evenodd;fill:#9FABF4;}
	.st7{opacity:0.72;fill:#FFFFFF;enable-background:new    ;}
	.st8{fill:#9FABF4;}
	.st9{fill:#2E1C67;}
	.st10{fill:#F6AC27;}
	.st11{fill:#8995CE;}
	.st12{fill-rule:evenodd;clip-rule:evenodd;fill:#FFD6A1;}
	.st13{opacity:0.1;}
	.st14{opacity:0.1;enable-background:new    ;}
	.st15{fill:#D0D7EF;}
	.st16{fill-rule:evenodd;clip-rule:evenodd;}
	.st17{fill-rule:evenodd;clip-rule:evenodd;fill:#27187F;}
	.st18{fill-rule:evenodd;clip-rule:evenodd;fill:#FF9803;}
	.st19{fill-rule:evenodd;clip-rule:evenodd;fill:#3124B2;}
	.st20{fill-rule:evenodd;clip-rule:evenodd;fill:#FFE4C4;}
	.st21{fill-rule:evenodd;clip-rule:evenodd;fill:#000059;}
	.st22{fill-rule:evenodd;clip-rule:evenodd;fill:#F6AC27;}
	.st23{fill-rule:evenodd;clip-rule:evenodd;fill:#2C2477;}
	.st24{fill-rule:evenodd;clip-rule:evenodd;fill:#FFAE2C;}
	.st25{fill-rule:evenodd;clip-rule:evenodd;fill:#402B99;}
	.st26{fill:#463ABF;}
	.st27{fill:#F2F2F2;}
	.st28{fill:#F4DBB3;}
</style>
<g>
	<title>Illustration_Communication Global</title>
	<g id="Communication_Global">
		<path class="st0" d="M119.7,63.7c12.5,18.7,4.9,32.3-18,35.3c-6.6,0.8-13.2,0.3-19.6-1.6c-1.8-0.5-3.6-1-5.3-1.6
			c-0.8-0.3-1.7-0.6-2.5-0.8c-7.2-2.4-14.5-4.9-23.3-4.8c-5.6,0.1-11.1,1.1-16.3,2.9C5,103.3-15.7,61.3,19.7,42.6
			c8.5-4.5-7.1-14.6-5.3-26C16.7,1.3,38.3-0.6,45.2,9.2s18.2,11.3,33.7-1.4c27.4-22.5,53.8,10.2,47.3,15.7
			C119.7,29.1,107.2,45,119.7,63.7z"/>
		<path class="st1" d="M98.7,61.7c0,1.4-0.6,2.8-1.8,3.7c-2.7,2.5,3.8,2.8,3.1,7.1c-0.7,4.3-2.4,5.4-1.4,7.8s5.3,3,4.3,16.6
			c0.6,1.2-3,2.9-3.6,1.6c-7.3-4.8-12-9-9.7-12.5c1.2-1.6,1.3-3.8,0.2-5.5c-0.6-1.2-1.5-2.4-2.5-3.8c-2.3-3.6,1.4-5.6,3.2-8
			s-3.6-5.8-0.8-8s4.3-3.8,6.8-2.2C97.9,59.1,98.6,60.3,98.7,61.7z"/>
		<path class="st2" d="M101.8,99c-0.2,0.1-0.5,0-0.6-0.2c-0.5-0.8-13.2-20.2-7.7-35.5c0.1-0.2,0.4-0.4,0.6-0.3
			c0.2,0.1,0.4,0.4,0.3,0.6c-5.4,14.8,7.4,34.5,7.6,34.7C102.1,98.6,102.1,98.9,101.8,99L101.8,99z"/>
		<path class="st3" d="M131,72.8c-0.8,1.4-1.7,2.6-2.8,3.8c-3.8,4.3-4.7-0.2-4.1,2.6s-6.6,0-7.4,2.1c-0.2,0.5,0,1.1,0.3,1.5l0,0
			c0.8,1.2,2.5,2.4,3.1,4.2c0.1,0.2,0.1,0.3,0.1,0.5c0.2,0.8,0.1,1.6-0.2,2.4c-0.6,1.7-2.5,2.1-4.9,2.2c-1.2,0-2.7,0-4.2,0.1
			c-0.1,0-0.3,0-0.4,0c-0.5,0-1.1,0-1.6,0.1c-0.9,0-1.7,0.2-2.6,0.3l-1.1,0.3c-0.1,0-0.2,0-0.3,0.1c-0.6,0.2-1.1,0.3-1.6,0.6
			c-0.4,0.1-0.7,0.3-1.1,0.5c-0.3,0.2-0.7,0.3-1,0.4c-0.2,0.1-0.4,0.1-0.6,0.1c-0.2,0-0.4-0.1-0.6-0.2c-0.1-0.1-0.2-0.3-0.3-0.4
			c-0.1-0.3-0.2-0.5-0.2-0.8c0,0,0,0,0-0.1l0,0c0.2-3.5,1.3-6.9,3.3-9.8c0.2-0.2,0.3-0.5,0.5-0.7c1.1-2.1,0.9-4.2,0.6-6.3
			c-0.1-0.5-0.1-1-0.2-1.5c-0.1-0.9-0.2-1.9-0.1-2.8c0.1-0.6,0.2-1.2,0.5-1.8c0.1-0.3,0.3-0.7,0.5-1c0.1-0.1,0.2-0.2,0.2-0.3
			c0.7-0.9,1.3-0.9,1.9-0.4c1.7,1.5,3.1,7.2,4.9,6.2c1.9-1-0.2-3.9-0.9-6.6c-0.4-1-0.3-2.2,0.3-3.1c2.1-2.8,3.7,1.4,9.1-0.6
			c5.5-1.9,6.1-7.2,9.6-7.3c3.5-0.1-4.5,7.5-2,6.4c2.5-1,2,1.6,0.2,3.6c-1.8,2-4.7,3.3,0.3,2.7C131.8,69.1,132.2,70.6,131,72.8z"/>
		<path class="st4" d="M106.2,73.8c0.3,0,0.6,0.2,0.8,0.9c0.2,0.8,0.3,1.7,0.3,2.6c0,0.3,0,0.5,0,0.8c-0.1,0.6-0.1,1.1,0,1.7
			c0.2,1.1,0.8,2,1.6,2.7c0.5-0.2,1.1-0.4,1.6-0.7c2-1.2,3.5-3,4.4-5.1c0.4-0.8,0.7-1.7,1-2.6c-0.5-0.4-0.9-0.8-1.1-1.3
			c-0.3-0.8-0.4-1.6-0.2-2.4c0-0.2,0-0.4,0-0.6c0-0.8,0-1.6-0.2-2.4c-0.1-0.3-0.2-0.7-0.5-0.7c-0.2,0-0.3-0.1-0.3-0.3c0,0,0,0,0,0
			c0-0.2,0.1-0.3,0.3-0.3c0.5,0,0.9,0.4,1.1,1.2c0.2,0.8,0.3,1.7,0.2,2.6c0,0.2,0,0.4,0,0.6c-0.1,0.7-0.1,1.4,0.2,2.1
			c0.2,0.4,0.5,0.7,0.8,0.9c0.2-0.6,0.4-1.3,0.6-1.9s0.3-1,0.4-1.5c0.2-0.7,0.5-1.4,0.9-2.1c1-1.3,2.5-1.8,4.2-2.3
			c0.2,0,0.3,0,0.4,0.2c0,0.2,0,0.3-0.2,0.4c-1.6,0.4-3,0.9-3.9,2c-0.4,0.6-0.7,1.2-0.8,1.9l-0.4,1.5c-0.3,1.1-0.7,2.2-1.1,3.4
			c0.6,0.2,1.3,0.1,1.8-0.2c0.4-0.3,0.8-0.6,1.2-0.9l0.3-0.2c0.5-0.5,1.1-0.9,1.7-1.1c0.7-0.2,1.3-0.2,2,0c0.2,0.1,0.4,0.2,0.7,0.3
			c0.3,0.2,0.6,0.3,0.9,0.3c0.2,0,0.3,0.1,0.3,0.3c0,0,0,0,0,0c0,0.2-0.1,0.3-0.3,0.3c0,0,0,0,0,0c-0.4,0-0.8-0.1-1.2-0.3
			c-0.2-0.1-0.4-0.2-0.6-0.2c-0.5-0.2-1.1-0.2-1.7,0c-0.6,0.2-1.1,0.6-1.5,1l-0.3,0.2c-0.4,0.4-0.8,0.7-1.3,1
			c-0.7,0.4-1.6,0.5-2.3,0.3c-0.2,0.4-0.3,0.9-0.5,1.3c-0.9,2.2-2.6,4.1-4.7,5.4c-0.6,0.3-1.2,0.6-1.8,0.8h-0.1
			c-0.9,0.3-1.7,0.7-2.5,1.3c-0.2,0.2-0.5,0.4-0.6,0.6c0.5,0.2,1.1,0.4,1.6,0.6l0.3,0.2c1.7,0.9,3.6,1.3,5.5,1
			c0.3,0,0.6-0.1,0.9-0.2c0.7-0.2,1.5-0.3,2.2-0.2c0.2,0,0.3,0.2,0.3,0.4c0,0,0,0,0,0c0,0.2-0.2,0.3-0.4,0.3c-0.7-0.1-1.4,0-2,0.2
			c-0.3,0.1-0.6,0.1-0.9,0.2c-1.6,0.2-3.2,0-4.6-0.6c-0.4-0.2-0.9-0.3-1.3-0.6l-0.3-0.2c-0.5-0.3-1.1-0.5-1.7-0.6l0,0l-0.6,0.9
			l-2,2.9c-0.5,0.6-0.9,1.3-1.3,2c-0.8,1.8-0.8,3.9,0,5.7c0.1,0.2,0,0.3-0.1,0.4c-0.1,0-0.2,0-0.2,0c-0.1,0-0.1-0.1-0.2-0.2
			c-0.9-2-0.9-4.2,0-6.2c0.4-0.8,0.8-1.5,1.4-2.1l2.1-2.9c0.5-0.8,1.1-1.5,1.9-2.1c0.7-0.5,1.4-0.9,2.2-1.2
			c-0.8-0.8-1.4-1.8-1.6-2.9c-0.1-0.6-0.1-1.2,0-1.8c0-0.2,0-0.5,0-0.7c0-0.8-0.1-1.6-0.3-2.4c-0.1-0.3-0.2-0.4-0.2-0.4
			c-0.2,0-0.3-0.2-0.3-0.4C106,73.9,106.1,73.8,106.2,73.8z"/>
		<path class="st5" d="M124.1,89.4c-0.2,0.8-0.8,1.4-1.6,1.7c-0.1,0-0.2,0-0.3,0.1c-0.8,0.1-1.5-0.1-2.1-0.5c-1.9-1.2-1,2.6-3.7,2.9
			c-0.1,0-0.1,0-0.2,0c-2.1,0.1-3.1-0.4-4,0.1c-0.1,0-0.3,0.1-0.4,0.2c0,0-0.1,0-0.1,0.1c-0.5,0.4-0.8,1.2-1.6,2
			c-1,0.9-2.1,1.6-3.4,1.9c-1.3,0.5-2.6,0.8-4,1.1c-0.3,0.2-0.7,0-1-0.3c-0.1-0.1-0.3-0.3-0.4-0.4c0,0-0.1-0.1,0-0.1
			c0,0-0.1-0.1-0.1-0.1c-0.2-0.2-0.2-0.5-0.1-0.8c0,0,0,0,0-0.1l0,0c0.1-0.4,0.2-0.7,0.4-1.1c0.2-0.6,0.5-1.3,0.7-1.9
			c1.2-2.8,2.4-4.7,4-4.7c0.1,0,0.2,0,0.3,0l0.4,0.1c1.1,0.5,2.4,0.2,3.2-0.7c0.2-0.1,0.3-0.3,0.5-0.5l0.4-0.5l0.9-1.1
			c1.7-1.8,3.4-0.1,5,0.6l0.1,0.1c1,0.4,1.8-0.8,2.7-1.5l0,0c0.5-0.5,1.3-0.6,1.8-0.2C123.5,87.1,124.6,87.7,124.1,89.4z"/>
		<path class="st2" d="M101.3,98.5c-0.1-0.1-0.1-0.3,0-0.4c0.4-0.4,9.8-10.7,19.5-9.8c0.2,0,0.3,0.2,0.3,0.3c0,0.2-0.1,0.3-0.3,0.3
			c0,0,0,0,0,0c-9.4-0.9-18.9,9.5-19,9.6C101.6,98.6,101.4,98.6,101.3,98.5L101.3,98.5z"/>
		<path class="st6" d="M119.7,12.2v2.9c0,0.4-0.2,0.7-0.6,0.7l0,0H119h-3.5v1.1c0,0,0,0.1,0,0.1c-0.1,0.1-0.2,0.2-0.3,0.1
			c0,0,0,0-0.1,0l-1.2-1.2h-0.4c-0.4,0-0.7-0.3-0.8-0.7c0,0,0,0,0,0v-2.9c0,0,0-0.1,0-0.2c0.1-0.3,0.4-0.6,0.7-0.6h5.4
			C119.3,11.4,119.7,11.7,119.7,12.2C119.7,12.2,119.7,12.2,119.7,12.2z"/>
		<path class="st2" d="M118,13c0.2,0.9-0.3,1.8-1.2,2c-0.9,0.2-1.8-0.3-2-1.2c-0.1-0.3-0.1-0.5,0-0.8C115.9,12.7,117,12.7,118,13z"
			/>
		<path class="st7" d="M119.1,44.3c0,0.9,0,1.8-0.1,2.8c-1.6,17.5-17,30.3-34.4,28.8c-1.9-0.2-3.9-0.5-5.7-1l0,0
			c-16.9-4.7-26.7-22.2-22-39c3.7-13.1,15.3-22.4,28.9-23.1c0.6,0,1.1,0,1.7,0C104.9,12.7,119.1,26.8,119.1,44.3z"/>
		<path class="st8" d="M119.1,44.3c0,0.9,0,1.8-0.1,2.8c-0.5,0-1,0-1.4-0.1c-0.4,0-0.7-0.1-1.1-0.3c-0.3-0.2-0.6-0.5-0.8-0.8
			c-1.1-1.2-3.1-1.2-4.7-1.1c-0.5,0-0.9,0.1-1.3,0.3c-0.4,0.3-0.8,0.7-1.1,1.1c-0.3,0.4-0.9,0.6-1.4,0.4c-0.3-0.2-0.5-0.4-0.7-0.7
			c-0.9-1-2-1.7-3.3-2.1c-0.9-0.4-1.9-0.7-2.8-0.8c-2.1-0.1-4.1,1.1-5,3c-0.5,1.2-0.6,2.6-1.6,3.3s-2.4,0.6-3.6,0.3l-2.2-0.4
			c-0.3,0-0.5-0.1-0.7-0.3c-0.6-0.5-0.3-1.4,0.1-2s1.1-1.1,1.2-1.8c0.2-1-0.7-1.8-1.4-2.6c-1.3-1.4-2-3.1-2-5c0-1.9,0.8-3.6,2.3-4.8
			c0.7-0.5,1.6-0.9,2.3-1.4c0.8-0.5,1.2-1.3,1.2-2.2c-0.3-1-1.1-1.8-2.2-1.8c-1-0.1-2,0-3,0.1c-1.3,0.1-2.5-0.1-3.7-0.5
			c-0.3,0-0.6-0.3-0.6-0.7c0-0.1,0-0.1,0-0.2c0.6-2,2-3.5,3.9-4.3c1-0.3,1.9-1,2.5-1.8c0.2-0.5,0.3-1.1,0.2-1.7
			c-0.1-1.4-0.4-2.7-1-4c-0.4-0.6-0.8-1.1-1.4-1.6c0.6,0,1.1,0,1.7,0C104.9,12.7,119.1,26.8,119.1,44.3z"/>
		<path class="st8" d="M75.7,32.2c0,0.3-0.1,0.6-0.2,0.8c-0.1,0.1-0.3,0.2-0.5,0.3c-1.2,0.2-2.6-0.5-3.5,0.3
			c-0.2,0.3-0.4,0.6-0.6,0.9c-1,1.9-2.6,3.2-4.6,3.8c-0.5,0.2-1.1,0.2-1.6,0.1c-0.8-0.2-1.3-1-2-1.5c-1.5-0.9-3.4-0.1-5.1-0.4
			c-0.3-0.1-0.5-0.1-0.8-0.2c2-7.3,6.5-13.7,12.7-18c-0.8,1.7-1.3,3.4-0.3,5.2c1.3,2.3,4.8,2.7,6,5.1C75.7,29.6,75.9,30.9,75.7,32.2
			z"/>
		<path class="st8" d="M85.6,62.2c-0.5,0.9-1.8,0.9-2.8,0.8c-0.8-0.2-1.6-0.1-2.4,0.2c-0.7,0.4-1,1.6-0.3,2c0.5,1.7,0.9,3.3,1.4,5
			c0.4,1,0.4,2.1,0,3.2c-0.7,0.9-1.6,1.4-2.7,1.5l0,0C69,72.1,61.1,64.7,57.6,55.1c1.8,0.1,3.6-0.5,5-1.8c0.3-0.3,0.5-0.5,0.9-0.7
			c0.4-0.1,0.8-0.1,1.1-0.1c1.7,0.4,3.2,1.3,4.4,2.5c1.2,1.2,2.5,2.4,4,3.3c1.5,0.9,3.4,1,4.9,0.2c0.3-0.2,0.6-0.5,1-0.7
			c1.4-0.8,3.1,0,4.6,0.8c0.7,0.3,1.3,0.8,1.9,1.4C85.9,60.6,86,61.5,85.6,62.2z"/>
		<path class="st8" d="M99.2,60.6c0.3,0,0.6,0,0.9-0.1c0.3-0.2,0.5-0.5,0.6-0.8c0.6-1.5,0.3-3.2,0.3-4.8c0-0.4,0.1-0.7,0.2-1
			c0.2-0.2,0.4-0.4,0.7-0.5c1.1-0.5,2.4-0.8,3.6-0.8c0.7-0.1,1.5,0.1,2.1,0.5c0.6,0.4,0.9,1.2,0.7,1.9c-0.2,0.3-0.4,0.5-0.6,0.8
			c-0.6,0.8-1,1.7-0.9,2.7c0.1,0.7,0.1,1.3,0.1,2c-0.1,0.8-0.5,1.5-1,2.2c-0.9,1.3-2.2,2.4-3.6,3.1c-1.5,0.7-3.2,0.8-4.7,0.1
			c-1.5-0.7-2.6-2.2-2.7-3.9C95,59.8,97.7,60.6,99.2,60.6z"/>
		<path class="st8" d="M72.1,48.5c0,0.1,0,0.2,0.1,0.2c0.1,0.1,0.2,0.2,0.3,0.2c0.4,0.1,0.9,0.2,1.3,0.2c-0.2-0.3,0.1-0.8,0.5-0.8
			c0.4,0,0.7,0.2,1,0.4c0.8,0.5,1.5,1.3,1.9,2.2c0.4-0.1,0.8,0.3,1.1,0.1c0.1-0.1,0.2-0.2,0.2-0.4c0.2-0.7,0.1-1.4-0.2-2
			c-0.1-0.2-0.3-0.3-0.4-0.5c-0.1-0.3-0.2-0.5-0.1-0.8c0-0.6,0.2-1.2,0.6-1.7c0.4-0.4,0.7-0.9,0.9-1.5c0-0.3-0.1-0.7-0.2-1
			c-0.3-0.8-1.1-1.3-1.9-1.4c-0.8,0-1.4,0.8-2.2,0.8c-1.5,0-2.1-0.4-2.1,1.3C72.6,45.4,72.1,46.9,72.1,48.5z"/>
		<path class="st9" d="M104.7,31.8c-0.1,0-0.1,0-0.1-0.1c0-0.1,0-0.1,0.1-0.2l1-0.2c0.1,0,0.1,0,0.2,0.1c0,0.1,0,0.1-0.1,0.2
			L104.7,31.8L104.7,31.8z M106.7,31.4c-0.1,0-0.1,0-0.1-0.1c0-0.1,0-0.1,0.1-0.2l1-0.3c0.1,0,0.1,0,0.2,0.1c0,0.1,0,0.1-0.1,0.2
			L106.7,31.4L106.7,31.4z M108.7,30.8c-0.1,0-0.1,0-0.1-0.1c0-0.1,0-0.1,0.1-0.2c0.3-0.1,0.7-0.2,1-0.3c0.1,0,0.1,0,0.2,0.1
			c0,0,0,0,0,0c0,0.1,0,0.1-0.1,0.2c0,0,0,0,0,0C109.4,30.6,109.1,30.7,108.7,30.8L108.7,30.8z M110.6,30.1c-0.1,0-0.1,0-0.1-0.1
			c0-0.1,0-0.1,0.1-0.2c0.3-0.1,0.6-0.3,1-0.4c0.1,0,0.1,0,0.2,0.1c0,0,0,0,0,0c0,0.1,0,0.1-0.1,0.2L110.6,30.1L110.6,30.1z
			 M112.5,29.2c-0.1,0-0.1,0-0.1-0.1c0-0.1,0-0.1,0.1-0.2c0.3-0.2,0.6-0.3,0.9-0.5c0.1,0,0.1,0,0.2,0.1c0,0.1,0,0.1,0,0.2
			c-0.3,0.2-0.6,0.3-0.9,0.5L112.5,29.2z M114.3,28.2c-0.1,0-0.1-0.1-0.1-0.1c0,0,0-0.1,0-0.1c0.3-0.2,0.6-0.4,0.8-0.6
			c0.1,0,0.1,0,0.2,0.1c0,0,0,0.1,0,0.1C114.9,27.8,114.6,28,114.3,28.2C114.3,28.2,114.3,28.2,114.3,28.2L114.3,28.2z M115.9,26.9
			C115.9,26.9,115.8,26.9,115.9,26.9c-0.1-0.1-0.1-0.1-0.1-0.2c0.2-0.2,0.5-0.5,0.7-0.8c0.1,0,0.1,0,0.2,0c0,0,0.1,0.1,0,0.2
			c0,0,0,0,0,0C116.4,26.5,116.2,26.7,115.9,26.9C115.9,26.9,115.9,26.9,115.9,26.9L115.9,26.9z M117.1,25.3L117.1,25.3
			c-0.1,0-0.1-0.1-0.1-0.2c0,0,0,0,0,0c0.2-0.3,0.3-0.6,0.4-0.9c0-0.1,0.1-0.1,0.2-0.1c0.1,0,0.1,0.1,0.1,0.1c0,0,0,0,0,0
			c-0.1,0.3-0.2,0.7-0.4,1C117.2,25.3,117.2,25.3,117.1,25.3L117.1,25.3z M117.7,23.3L117.7,23.3c-0.1,0-0.1-0.1-0.1-0.1v-0.1
			c0-0.3,0-0.6-0.1-0.9c0-0.1,0-0.1,0.1-0.1c0,0,0,0,0,0c0.1,0,0.1,0,0.2,0.1c0.1,0.3,0.1,0.7,0.1,1v0.1
			C117.8,23.3,117.8,23.3,117.7,23.3L117.7,23.3z M117.2,21.3c0,0-0.1,0-0.1-0.1c-0.2-0.3-0.4-0.6-0.6-0.8c0-0.1,0-0.1,0-0.2
			c0.1,0,0.1,0,0.2,0c0.2,0.3,0.5,0.5,0.6,0.8C117.3,21.2,117.3,21.2,117.2,21.3L117.2,21.3z M115.8,19.8
			C115.8,19.8,115.7,19.8,115.8,19.8c-0.4-0.2-0.6-0.4-0.9-0.6c-0.1,0-0.1-0.1-0.1-0.2c0,0,0,0,0,0c0.1,0,0.1,0,0.2,0
			c0.3,0.2,0.6,0.4,0.9,0.6C115.9,19.7,115.9,19.8,115.8,19.8C115.9,19.8,115.8,19.8,115.8,19.8L115.8,19.8z M114,18.8L114,18.8
			c-0.4-0.1-0.7-0.2-1.1-0.3c-0.1,0-0.1-0.1-0.1-0.2c0-0.1,0.1-0.1,0.2-0.1c0.4,0.1,0.7,0.2,1,0.3C114.1,18.6,114.1,18.6,114,18.8
			L114,18.8C114.1,18.7,114,18.8,114,18.8L114,18.8z M105.3,18.3c-0.1,0-0.1,0-0.1-0.1c0-0.1,0-0.1,0.1-0.2l0.5-0.1
			c0.1,0,0.1,0,0.1,0.1c0,0,0,0,0,0c0,0.1,0,0.1-0.1,0.1c0,0,0,0,0,0L105.3,18.3L105.3,18.3z M112,18.2L112,18.2
			c-0.3-0.1-0.7-0.1-1-0.2c-0.1,0-0.1-0.1-0.1-0.1c0,0,0,0,0,0c0-0.1,0.1-0.1,0.1-0.1c0,0,0,0,0,0c0.4,0,0.7,0.1,1,0.2
			c0.1,0,0.1,0.1,0.1,0.2C112.1,18.2,112.1,18.2,112,18.2L112,18.2z M106.8,18.1c-0.1,0-0.1,0-0.1-0.1c0,0,0,0,0,0
			c0-0.1,0-0.1,0.1-0.1c0,0,0,0,0,0l1-0.1l0,0c0.1,0,0.1,0.1,0.1,0.1c0,0.1,0,0.1-0.1,0.1c0,0,0,0,0,0L106.8,18.1L106.8,18.1z
			 M109.9,18L109.9,18c-0.3,0-0.6,0-0.9,0h-0.2c-0.1,0-0.1-0.1-0.1-0.1c0-0.1,0.1-0.1,0.1-0.1h0.2c0.3,0,0.6,0,0.9,0
			c0.1,0,0.1,0.1,0.1,0.1l0,0C110.1,17.9,110,18,109.9,18C109.9,18,109.9,18,109.9,18L109.9,18z"/>
		<path class="st9" d="M95.9,21.3c-0.1,0-0.1-0.1-0.1-0.1c0-0.3-0.1-0.7-0.2-1c0-0.1,0-0.1,0.1-0.1c0,0,0,0,0,0c0.1,0,0.1,0,0.1,0.1
			c0,0,0,0,0,0c0.1,0.3,0.1,0.7,0.1,1C96.1,21.2,96,21.2,95.9,21.3C95.9,21.3,95.9,21.3,95.9,21.3L95.9,21.3z M95.5,19.3
			c-0.1,0-0.1,0-0.1-0.1c-0.1-0.3-0.2-0.7-0.3-1c0-0.1,0-0.1,0.1-0.2c0.1,0,0.1,0,0.2,0.1c0.1,0.3,0.2,0.7,0.3,1
			C95.7,19.2,95.6,19.2,95.5,19.3L95.5,19.3z M94.9,17.3c-0.1,0-0.1,0-0.1-0.1c-0.1-0.3-0.3-0.6-0.4-0.9c0-0.1,0-0.1,0.1-0.2
			c0.1,0,0.1,0,0.2,0c0,0,0,0,0,0c0.2,0.3,0.3,0.6,0.4,1C95.1,17.2,95,17.3,94.9,17.3C95,17.3,95,17.3,94.9,17.3L94.9,17.3z
			 M94,15.4c0,0-0.1,0-0.1-0.1c-0.2-0.3-0.4-0.6-0.6-0.8c0-0.1,0-0.1,0-0.2c0.1,0,0.1,0,0.2,0c0,0,0,0,0,0c0.2,0.3,0.4,0.6,0.6,0.8
			c0,0.1,0,0.1,0,0.2C94.1,15.4,94,15.4,94,15.4L94,15.4z M76.9,14.2C76.9,14.3,76.9,14.3,76.9,14.2c-0.1-0.1-0.1-0.1-0.1-0.2
			c0.2-0.2,0.5-0.5,0.8-0.7c0.1,0,0.1,0,0.2,0c0,0.1,0,0.1,0,0.2c-0.3,0.2-0.5,0.4-0.8,0.7C77,14.3,77,14.3,76.9,14.2z M92.7,13.8
			c0,0-0.1,0-0.1,0c-0.2-0.3-0.5-0.5-0.7-0.7c0-0.1,0-0.1,0-0.2c0.1,0,0.1,0,0.2,0c0.3,0.2,0.5,0.5,0.8,0.7c0,0,0.1,0.1,0,0.2
			C92.9,13.8,92.9,13.8,92.7,13.8C92.8,13.8,92.8,13.8,92.7,13.8z M78.5,12.9c0,0-0.1,0-0.1,0c0-0.1,0-0.1,0-0.2
			c0.3-0.2,0.6-0.4,0.9-0.6c0,0,0.1-0.1,0.2,0c0,0,0,0,0,0c0,0,0,0.1,0,0.2c0,0,0,0,0,0C79.2,12.5,78.9,12.7,78.5,12.9L78.5,12.9z
			 M91.2,12.4C91.2,12.5,91.1,12.5,91.2,12.4c-0.4-0.2-0.7-0.4-0.9-0.5c-0.1,0-0.1-0.1-0.1-0.2c0.1,0,0.1,0,0.2,0
			c0.3,0.2,0.6,0.3,0.9,0.6C91.3,12.3,91.3,12.4,91.2,12.4C91.2,12.5,91.2,12.5,91.2,12.4z M80.3,11.9c-0.1,0-0.1,0-0.1-0.1
			c0-0.1,0-0.1,0.1-0.2c0.3-0.2,0.6-0.3,1-0.4c0.1,0,0.1,0,0.2,0.1c0,0.1,0,0.1-0.1,0.2c0,0,0,0,0,0c-0.3,0.1-0.6,0.3-0.9,0.4
			L80.3,11.9z M89.3,11.5L89.3,11.5c-0.4-0.1-0.7-0.2-1.1-0.3c-0.1,0-0.1-0.1-0.1-0.2c0-0.1,0.1-0.1,0.2-0.1c0.3,0.1,0.7,0.2,1,0.3
			C89.4,11.2,89.4,11.3,89.3,11.5L89.3,11.5C89.4,11.4,89.4,11.4,89.3,11.5L89.3,11.5z M82.2,11.1c-0.1,0-0.1-0.1-0.1-0.2
			c0,0,0-0.1,0.1-0.1c0.3-0.1,0.7-0.2,1-0.2c0.1,0,0.1,0,0.2,0.1c0,0,0,0,0,0c0,0.1,0,0.1-0.1,0.2C82.9,11,82.6,11,82.2,11.1
			L82.2,11.1z M87.3,10.9L87.3,10.9c-0.3-0.1-0.7-0.1-1-0.1c-0.1,0-0.1-0.1-0.1-0.1c0-0.1,0.1-0.1,0.1-0.1l0,0c0.4,0,0.7,0.1,1,0.1
			c0.1,0,0.1,0.1,0.1,0.1c0,0,0,0,0,0C87.4,10.8,87.4,10.9,87.3,10.9L87.3,10.9z M84.2,10.8c-0.1,0-0.1-0.1-0.1-0.1
			c0-0.1,0.1-0.1,0.1-0.1c0.3,0,0.7-0.1,1-0.1l0,0c0.1,0,0.1,0.1,0.1,0.1c0,0.1-0.1,0.1-0.1,0.1l0,0C84.9,10.7,84.6,10.7,84.2,10.8
			L84.2,10.8z"/>
		<path class="st9" d="M59,35c-0.3,0-0.6,0-0.9-0.1c-0.1,0-0.1-0.1-0.1-0.2c0-0.1,0.1-0.1,0.1-0.1c0,0,0,0,0,0
			c0.3,0.1,0.6,0.1,0.9,0.1h0.1c0.1,0,0.1,0.1,0.1,0.1c0,0.1-0.1,0.1-0.1,0.1l0,0L59,35z M60.2,34.9c-0.1,0-0.1,0-0.1-0.1
			c0-0.1,0-0.1,0.1-0.2c0,0,0,0,0,0c0.3-0.1,0.7-0.2,1-0.3c0.1,0,0.1,0,0.2,0.1c0,0.1,0,0.1,0,0.1c0,0,0,0,0,0
			C60.9,34.7,60.6,34.8,60.2,34.9L60.2,34.9z M57.2,34.7L57.2,34.7c-0.3-0.1-0.6-0.3-0.9-0.6c0,0-0.1-0.1,0-0.2c0,0,0,0,0,0
			c0.1,0,0.1,0,0.2,0c0.2,0.2,0.5,0.4,0.8,0.6c0.1,0,0.1,0.1,0.1,0.2C57.4,34.7,57.3,34.7,57.2,34.7C57.2,34.7,57.2,34.7,57.2,34.7
			L57.2,34.7z M62.2,34.2c-0.1,0-0.1-0.1-0.1-0.1c0,0,0-0.1,0.1-0.1c0.3-0.2,0.6-0.4,0.9-0.6c0.1,0,0.1,0,0.2,0c0,0.1,0,0.1,0,0.2
			c-0.3,0.2-0.6,0.4-0.9,0.6L62.2,34.2z M55.8,33.2c-0.1,0-0.1,0-0.1-0.1c-0.1-0.2-0.1-0.3-0.1-0.5c0-0.2,0-0.4,0.1-0.6
			c0-0.1,0.1-0.1,0.2-0.1c0,0,0,0,0,0c0.1,0,0.1,0.1,0.1,0.2c-0.1,0.2-0.1,0.3-0.1,0.5c0,0.2,0,0.3,0.1,0.4
			C56,33.1,55.9,33.2,55.8,33.2L55.8,33.2z M63.8,32.9c0,0-0.1,0-0.1,0c0-0.1,0-0.1,0-0.2c0.2-0.2,0.5-0.5,0.7-0.7
			c0.1,0,0.1,0,0.2,0c0,0.1,0,0.1,0,0.2C64.4,32.4,64.1,32.7,63.8,32.9C63.8,32.9,63.8,32.9,63.8,32.9L63.8,32.9z M56.4,31.4
			c0,0-0.1,0-0.1,0c0,0-0.1-0.1,0-0.2c0,0,0,0,0,0c0.3-0.2,0.6-0.4,0.9-0.5c0.1,0,0.1,0,0.2,0.1c0,0,0,0,0,0c0,0.1,0,0.1-0.1,0.2
			l0,0C57.1,31.1,56.8,31.2,56.4,31.4C56.5,31.4,56.4,31.4,56.4,31.4L56.4,31.4z M65.2,31.4C65.2,31.4,65.1,31.4,65.2,31.4
			c-0.1-0.1-0.1-0.1-0.1-0.2c0.2-0.3,0.4-0.6,0.6-0.8c0.1,0,0.1,0,0.2,0c0,0.1,0,0.1,0,0.2C65.7,30.9,65.5,31.2,65.2,31.4
			C65.2,31.4,65.2,31.4,65.2,31.4L65.2,31.4z M58.3,30.7c-0.1,0-0.1,0-0.1-0.1c0-0.1,0-0.1,0.1-0.2c0,0,0,0,0,0l0.6-0.1
			c0.1,0,0.1,0,0.1,0.1c0,0.1,0,0.1-0.1,0.1c0,0,0,0,0,0L58.3,30.7L58.3,30.7z"/>
		<path class="st9" d="M103.8,55.1c-0.1,0-0.1-0.1-0.1-0.1c0,0,0-0.1,0-0.1c0.2-0.2,0.5-0.5,0.7-0.8c0.1,0,0.1,0,0.2,0
			c0,0.1,0,0.1,0,0.2C104.4,54.5,104.2,54.8,103.8,55.1C103.9,55.1,103.9,55.1,103.8,55.1z M105.1,53.4L105.1,53.4
			c-0.1-0.1-0.1-0.1-0.1-0.2c0.2-0.3,0.4-0.6,0.5-0.9c0-0.1,0.1-0.1,0.2-0.1c0,0,0,0,0,0c0.1,0,0.1,0.1,0.1,0.2
			c-0.2,0.3-0.3,0.6-0.5,0.9C105.2,53.4,105.2,53.5,105.1,53.4z M106,51.6L106,51.6c-0.1,0-0.1-0.1-0.1-0.2c0,0,0,0,0,0
			c0.1-0.3,0.2-0.6,0.3-1c0-0.1,0.1-0.1,0.2-0.1c0.1,0,0.1,0.1,0.1,0.2c-0.1,0.3-0.2,0.7-0.3,1C106.1,51.5,106.1,51.6,106,51.6
			L106,51.6z M106.5,49.6L106.5,49.6c-0.1,0-0.1-0.1-0.1-0.1c0,0,0,0,0,0c0-0.3,0.1-0.7,0.1-1c0-0.1,0-0.1,0.1-0.1c0,0,0,0,0,0
			c0.1,0,0.1,0.1,0.1,0.1c0,0.3,0,0.7-0.1,1C106.7,49.5,106.6,49.6,106.5,49.6C106.6,49.6,106.6,49.6,106.5,49.6L106.5,49.6z
			 M106.6,47.5c-0.1,0-0.1-0.1-0.1-0.1c0-0.3-0.1-0.7-0.1-1c0-0.1,0.1-0.1,0.1-0.1s0.1,0.1,0.1,0.1c0,0,0,0,0,0
			c0.1,0.3,0.1,0.7,0.1,1C106.7,47.5,106.7,47.5,106.6,47.5L106.6,47.5z M106.2,45.5c-0.1,0-0.1,0-0.1-0.1c-0.1-0.3-0.2-0.6-0.3-1
			c0-0.1,0-0.1,0.1-0.2c0.1,0,0.1,0,0.2,0.1c0.1,0.3,0.3,0.7,0.4,1C106.4,45.4,106.3,45.5,106.2,45.5L106.2,45.5z M105.4,43.6
			c0,0-0.1,0-0.1-0.1c-0.2-0.3-0.3-0.6-0.6-0.9c0-0.1,0-0.1,0-0.2c0.1,0,0.1,0,0.2,0c0.2,0.3,0.4,0.6,0.6,0.9
			C105.6,43.5,105.6,43.6,105.4,43.6C105.5,43.6,105.5,43.6,105.4,43.6C105.5,43.6,105.4,43.6,105.4,43.6L105.4,43.6z M104.2,41.9
			c0,0-0.1,0-0.1,0c-0.2-0.3-0.5-0.5-0.7-0.7c0-0.1,0-0.1,0-0.2c0.1,0,0.1,0,0.2,0c0.2,0.2,0.5,0.5,0.7,0.8c0,0.1,0,0.1,0,0.2
			C104.3,42,104.3,41.9,104.2,41.9L104.2,41.9z M102.7,40.5L102.7,40.5c-0.3-0.2-0.6-0.4-0.9-0.6c-0.1,0-0.1-0.1-0.1-0.2
			c0.1,0,0.1,0,0.2,0c0.3,0.2,0.6,0.4,0.9,0.6C102.9,40.4,102.9,40.5,102.7,40.5C102.8,40.6,102.8,40.6,102.7,40.5L102.7,40.5z
			 M100.9,39.4L100.9,39.4c-0.4-0.1-0.7-0.3-1-0.4c-0.1,0-0.1-0.1-0.1-0.1c0,0,0,0,0,0c0-0.1,0.1-0.1,0.2-0.1c0.3,0.1,0.6,0.2,1,0.4
			c0.1,0,0.1,0.1,0.1,0.2C101,39.4,101,39.4,100.9,39.4z M99,38.7L99,38.7c-0.3-0.1-0.7-0.2-1-0.2c-0.1,0-0.1-0.1-0.1-0.1
			c0,0,0,0,0,0c0-0.1,0.1-0.1,0.1-0.1c0.4,0.1,0.7,0.1,1,0.2c0.1,0,0.1,0.1,0.1,0.2C99.1,38.7,99.1,38.7,99,38.7L99,38.7z
			 M93.8,38.5c-0.1,0-0.1-0.1-0.1-0.1c0-0.1,0-0.1,0.1-0.1c0,0,0,0,0,0c0.3,0,0.7-0.1,1-0.1c0.1,0,0.1,0,0.1,0.1c0,0,0,0,0,0
			c0,0.1,0,0.1-0.1,0.1c0,0,0,0,0,0C94.5,38.4,94.2,38.5,93.8,38.5L93.8,38.5z M96.9,38.4L96.9,38.4c-0.3,0-0.6,0-1,0l0,0
			c-0.1,0-0.1-0.1-0.1-0.1c0-0.1,0.1-0.1,0.1-0.1l0,0c0.3,0,0.7,0,1,0c0.1,0,0.1,0.1,0.1,0.1c0,0,0,0,0,0
			C97.1,38.3,97,38.4,96.9,38.4L96.9,38.4z"/>
		<path class="st9" d="M100.4,61.6c-0.1,0-0.1,0-0.1-0.1c0,0,0,0,0,0c0-0.3-0.1-0.7-0.1-1c0-0.1,0-0.1,0.1-0.2c0.1,0,0.1,0,0.1,0.1
			c0,0,0,0,0,0c0.1,0.3,0.1,0.7,0.1,1C100.5,61.5,100.4,61.6,100.4,61.6C100.4,61.6,100.4,61.6,100.4,61.6L100.4,61.6z M100,59.6
			c-0.1,0-0.1,0-0.1-0.1c-0.1-0.3-0.1-0.7-0.2-1c0-0.1,0-0.1,0.1-0.2c0.1,0,0.1,0,0.2,0.1c0.1,0.3,0.2,0.7,0.2,1
			C100.2,59.5,100.1,59.5,100,59.6C100.1,59.6,100.1,59.6,100,59.6L100,59.6z M99.5,57.6c-0.1,0-0.1,0-0.1-0.1
			c-0.1-0.3-0.2-0.7-0.3-1c0-0.1,0-0.1,0.1-0.2c0,0,0,0,0,0c0.1,0,0.1,0,0.2,0.1c0,0,0,0,0,0c0.1,0.3,0.2,0.7,0.3,1
			C99.7,57.5,99.6,57.6,99.5,57.6L99.5,57.6z M98.8,55.6c-0.1,0-0.1,0-0.1-0.1c-0.1-0.3-0.3-0.6-0.4-0.9c0-0.1,0-0.1,0.1-0.2
			c0.1,0,0.1,0,0.2,0.1c0.1,0.3,0.3,0.6,0.4,1C99,55.6,98.9,55.6,98.8,55.6C98.9,55.7,98.9,55.7,98.8,55.6L98.8,55.6z M97.9,53.7
			c0,0-0.1,0-0.1-0.1l-0.5-0.9c0-0.1,0-0.1,0-0.2c0,0,0,0,0,0c0.1,0,0.1,0,0.2,0.1c0.2,0.3,0.3,0.6,0.5,0.9
			C98.1,53.5,98.1,53.6,97.9,53.7L97.9,53.7z M96.9,51.9c0,0-0.1,0-0.1-0.1c-0.2-0.3-0.4-0.6-0.6-0.9c0-0.1,0-0.1,0-0.2
			c0,0,0.1,0,0.2,0l0.6,0.9C97,51.7,97,51.8,96.9,51.9C97,51.8,97,51.8,96.9,51.9L96.9,51.9z M95.8,50.1c0,0-0.1,0-0.1,0
			c-0.2-0.3-0.4-0.6-0.6-0.8c0-0.1,0-0.1,0-0.2c0.1,0,0.1,0,0.2,0c0.2,0.3,0.4,0.6,0.6,0.8C95.9,50,95.9,50.1,95.8,50.1
			C95.8,50.2,95.8,50.2,95.8,50.1L95.8,50.1z M94.4,48.5C94.4,48.5,94.4,48.5,94.4,48.5l-0.8-0.8c0-0.1,0-0.1,0-0.2c0,0,0.1,0,0.1,0
			c0.2,0.2,0.5,0.5,0.7,0.8C94.6,48.4,94.6,48.5,94.4,48.5C94.5,48.6,94.5,48.6,94.4,48.5L94.4,48.5z M93,47.1
			C93,47.1,92.9,47.1,93,47.1c-0.3-0.2-0.6-0.4-0.9-0.7c0-0.1,0-0.1,0-0.2c0,0,0.1,0,0.1,0c0.3,0.2,0.5,0.4,0.8,0.7
			C93.1,46.9,93.1,47,93,47.1C93.1,47.1,93,47.1,93,47.1L93,47.1z M91.4,45.8L91.4,45.8c-0.4-0.2-0.7-0.4-0.9-0.6c0-0.1,0-0.1,0-0.2
			c0,0,0.1,0,0.2,0c0,0,0,0,0,0c0.3,0.2,0.6,0.4,0.9,0.6c0,0.1,0,0.1,0,0.2C91.4,45.8,91.4,45.8,91.4,45.8L91.4,45.8z M75.7,45.8
			c0,0-0.1,0-0.1-0.1c0-0.1,0-0.1,0.1-0.2l0,0c0.1,0,0.1,0,0.2,0C75.9,45.6,75.8,45.7,75.7,45.8L75.7,45.8L75.7,45.8z M76.7,45.3
			c0,0-0.1,0-0.1-0.1c0-0.1,0-0.1,0.1-0.2c0.3-0.2,0.6-0.3,0.9-0.5c0.1,0,0.1,0,0.2,0.1c0,0.1,0,0.1,0,0.2c0,0,0,0,0,0
			C77.3,44.9,77,45.1,76.7,45.3L76.7,45.3z M89.6,44.8L89.6,44.8c-0.4-0.2-0.7-0.3-1-0.4c-0.1,0-0.1-0.1-0.1-0.2l0,0
			c0-0.1,0.1-0.1,0.2-0.1c0,0,0,0,0,0c0.3,0.1,0.6,0.3,0.9,0.4c0.1,0,0.1,0.1,0.1,0.2C89.7,44.7,89.6,44.7,89.6,44.8L89.6,44.8z
			 M78.6,44.4c-0.1,0-0.1-0.1-0.1-0.2c0,0,0-0.1,0.1-0.1c0.3-0.1,0.7-0.2,1-0.3c0.1,0,0.1,0,0.2,0.1c0,0.1,0,0.1-0.1,0.2
			C79.3,44.1,79,44.2,78.6,44.4L78.6,44.4z M87.7,44L87.7,44c-0.3-0.1-0.7-0.2-1-0.3c-0.1,0-0.1-0.1-0.1-0.1c0,0,0,0,0,0
			c0-0.1,0.1-0.1,0.2-0.1c0,0,0,0,0,0c0.3,0.1,0.7,0.2,1,0.3c0.1,0,0.1,0.1,0.1,0.2c0,0,0,0,0,0C87.8,43.9,87.8,44,87.7,44L87.7,44z
			 M80.5,43.8c-0.1,0-0.1,0-0.1-0.1c0-0.1,0-0.1,0.1-0.2c0.3-0.1,0.7-0.2,1-0.2c0.1,0,0.1,0,0.1,0.1c0,0,0,0,0,0
			c0,0.1,0,0.1-0.1,0.2L80.5,43.8L80.5,43.8z M85.7,43.5L85.7,43.5c-0.3-0.1-0.7-0.1-1-0.1c-0.1,0-0.1-0.1-0.1-0.1
			c0-0.1,0.1-0.1,0.1-0.1c0.4,0,0.7,0.1,1,0.1c0.1,0,0.1,0.1,0.1,0.1c0,0,0,0,0,0C85.8,43.4,85.7,43.5,85.7,43.5L85.7,43.5z
			 M82.6,43.4c-0.1,0-0.1-0.1-0.1-0.1c0-0.1,0.1-0.1,0.1-0.1c0.4,0,0.7,0,1.1-0.1l0,0c0.1,0,0.1,0.1,0.1,0.1c0,0.1-0.1,0.1-0.1,0.1
			l0,0C83.3,43.3,83,43.4,82.6,43.4L82.6,43.4z"/>
		<path class="st9" d="M90.5,80.1L90.5,80.1l-1.1-0.1c-0.1,0-0.1-0.1-0.1-0.1c0,0,0,0,0,0c0-0.1,0.1-0.1,0.1-0.1c0,0,0,0,0,0
			c0.3,0,0.7,0,1,0.1c0.1,0,0.1,0.1,0.1,0.1C90.6,80.1,90.5,80.1,90.5,80.1C90.4,80.1,90.4,80.1,90.5,80.1L90.5,80.1z M91.5,80.1
			c-0.1,0-0.1-0.1-0.1-0.1c0-0.1,0-0.1,0.1-0.1c0,0,0,0,0,0c0.3,0,0.7,0,1-0.1l0,0c0.1,0,0.1,0,0.1,0.1c0,0.1,0,0.1-0.1,0.1
			C92.1,80.1,91.8,80.1,91.5,80.1L91.5,80.1z M88.4,80L88.4,80c-0.4-0.1-0.7-0.1-1-0.2c-0.1,0-0.1-0.1-0.1-0.2
			c0-0.1,0.1-0.1,0.1-0.1c0,0,0,0,0,0c0.3,0.1,0.7,0.1,1,0.2c0.1,0,0.1,0.1,0.1,0.1C88.5,79.9,88.5,80,88.4,80L88.4,80z M93.5,80
			c-0.1,0-0.1,0-0.1-0.1c0-0.1,0-0.1,0.1-0.1c0,0,0,0,0,0l1-0.2c0.1,0,0.1,0,0.1,0.1c0,0,0,0,0,0c0,0.1,0,0.1-0.1,0.1c0,0,0,0,0,0
			C94.2,79.8,93.9,79.9,93.5,80L93.5,80z M86.3,79.6L86.3,79.6c-0.3-0.1-0.7-0.2-1-0.3c-0.1,0-0.1-0.1-0.1-0.1s0.1-0.1,0.1-0.1
			c0,0,0,0,0.1,0c0.3,0.1,0.7,0.2,1,0.3c0.1,0,0.1,0.1,0.1,0.1c0,0,0,0,0,0C86.5,79.5,86.4,79.6,86.3,79.6L86.3,79.6z M95.5,79.5
			c-0.1,0-0.1,0-0.1-0.1c0-0.1,0-0.1,0.1-0.2c0.3-0.1,0.6-0.2,1-0.4c0.1,0,0.1,0,0.2,0.1c0,0.1,0,0.1-0.1,0.2c0,0,0,0,0,0
			C96.3,79.2,95.9,79.4,95.5,79.5L95.5,79.5z M84.4,78.9L84.4,78.9c-0.3-0.1-0.6-0.3-1-0.4c-0.1,0-0.1-0.1-0.1-0.2
			c0-0.1,0.1-0.1,0.2-0.1c0.3,0.1,0.6,0.3,0.9,0.4c0.1,0,0.1,0.1,0.1,0.2C84.5,78.9,84.4,78.9,84.4,78.9L84.4,78.9z M97.5,78.7
			c-0.1,0-0.1,0-0.1-0.1c0-0.1,0-0.1,0.1-0.2c0.3-0.1,0.6-0.3,0.9-0.5c0,0,0.1,0,0.2,0c0,0,0,0,0,0c0,0.1,0,0.1,0,0.2
			C98.2,78.3,97.9,78.5,97.5,78.7L97.5,78.7z M82.5,78L82.5,78c-0.4-0.2-0.7-0.4-0.9-0.5c0-0.1,0-0.1,0-0.2c0.1,0,0.1,0,0.2,0
			c0.3,0.2,0.6,0.4,0.9,0.5c0.1,0,0.1,0.1,0,0.2C82.6,78.1,82.5,78.1,82.5,78L82.5,78z M99.2,77.7c0,0-0.1,0-0.1-0.1
			c0-0.1,0-0.1,0-0.2c0.3-0.2,0.6-0.4,0.8-0.6c0.1,0,0.1,0,0.2,0c0,0,0.1,0.1,0,0.2c0,0,0,0,0,0C99.8,77.2,99.6,77.4,99.2,77.7
			C99.3,77.6,99.3,77.7,99.2,77.7L99.2,77.7z M80.7,76.9C80.7,76.9,80.7,76.9,80.7,76.9c-0.4-0.2-0.6-0.4-0.9-0.6c0-0.1,0-0.1,0-0.2
			c0.1,0,0.1,0,0.2,0c0.3,0.2,0.5,0.4,0.8,0.6C80.9,76.8,80.9,76.9,80.7,76.9C80.8,76.9,80.8,76.9,80.7,76.9L80.7,76.9z M100.8,76.4
			c0,0-0.1,0-0.1,0c0-0.1,0-0.1,0-0.2c0.2-0.2,0.5-0.5,0.7-0.7c0.1,0,0.1,0,0.2,0c0,0,0.1,0.1,0,0.2c0,0,0,0,0,0
			C101.4,75.9,101.1,76.2,100.8,76.4C100.9,76.4,100.9,76.4,100.8,76.4L100.8,76.4z M79.2,75.6c0,0-0.1,0-0.1,0
			c-0.2-0.2-0.5-0.5-0.7-0.8c0-0.1,0-0.1,0-0.2c0.1,0,0.1,0,0.2,0c0.2,0.3,0.4,0.5,0.7,0.8C79.3,75.4,79.3,75.5,79.2,75.6
			C79.2,75.5,79.2,75.5,79.2,75.6L79.2,75.6z M102.2,74.9C102.2,74.9,102.2,74.9,102.2,74.9c-0.1,0-0.1-0.1-0.1-0.2c0,0,0,0,0,0
			c0.2-0.3,0.4-0.5,0.6-0.8c0.1,0,0.1,0,0.2,0c0,0.1,0,0.1,0,0.2C102.8,74.3,102.6,74.6,102.2,74.9
			C102.3,74.9,102.3,74.8,102.2,74.9L102.2,74.9z M77.9,73.9c0,0-0.1,0-0.1-0.1c-0.2-0.3-0.4-0.6-0.5-0.9c0-0.1,0-0.1,0.1-0.2
			c0.1,0,0.1,0,0.2,0.1c0,0,0,0,0,0c0.2,0.3,0.3,0.6,0.5,0.9c0,0,0.1,0.1,0,0.2c0,0,0,0,0,0C78,73.9,78,73.9,77.9,73.9z M103.5,73.1
			L103.5,73.1c-0.1-0.1-0.1-0.1-0.1-0.2c0.2-0.3,0.4-0.6,0.5-0.9c0-0.1,0.1-0.1,0.2-0.1c0.1,0,0.1,0.1,0.1,0.2c0,0,0,0,0,0.1
			c-0.2,0.3-0.3,0.6-0.5,0.9C103.6,73.1,103.6,73.2,103.5,73.1z M76.9,72.1c-0.1,0-0.1,0-0.1-0.1c-0.1-0.3-0.2-0.7-0.3-1
			c0-0.1,0-0.1,0.1-0.2c0.1,0,0.1,0,0.2,0.1c0,0,0,0,0,0c0.1,0.3,0.2,0.7,0.3,1C77.1,72,77.1,72.1,76.9,72.1
			C77,72.1,77,72.1,76.9,72.1L76.9,72.1z M104.5,71.3L104.5,71.3c-0.1,0-0.1-0.1-0.1-0.2c0,0,0,0,0,0c0-0.1,0.1-0.2,0.1-0.3
			c0-0.1,0.1-0.1,0.2-0.1c0.1,0,0.1,0.1,0.1,0.2l0,0c0,0.1-0.1,0.2-0.1,0.3C104.6,71.3,104.6,71.3,104.5,71.3L104.5,71.3z
			 M76.4,70.1c-0.1,0-0.1,0-0.1-0.1c0-0.3-0.1-0.7-0.1-1.1c0-0.1,0.1-0.1,0.1-0.1s0.1,0.1,0.1,0.1c0,0,0,0,0,0c0,0.3,0,0.7,0.1,1
			C76.6,70,76.5,70.1,76.4,70.1C76.4,70.1,76.4,70.1,76.4,70.1L76.4,70.1z"/>
		<path class="st9" d="M63.7,62h-0.5C63.1,62,63,62,63,61.9c0-0.1,0.1-0.1,0.1-0.1c0,0,0,0,0,0l0,0c0.3,0,0.7,0,1,0
			c0.1,0,0.1,0,0.1,0.1c0,0,0,0,0,0c0,0.1,0,0.1-0.1,0.1c0,0,0,0,0,0H63.7z M62.1,61.9L62.1,61.9c-0.3-0.1-0.7-0.1-1-0.2
			c-0.1,0-0.1-0.1-0.1-0.2c0-0.1,0.1-0.1,0.2-0.1c0.3,0.1,0.7,0.2,1,0.2c0.1,0,0.1,0.1,0.1,0.1c0,0,0,0,0,0
			C62.3,61.9,62.2,61.9,62.1,61.9C62.1,61.9,62.1,61.9,62.1,61.9z M65.2,61.9c-0.1,0-0.1,0-0.1-0.1c0-0.1,0-0.1,0.1-0.1c0,0,0,0,0,0
			c0.3-0.1,0.7-0.1,1-0.2c0.1,0,0.1,0,0.2,0.1c0,0.1,0,0.1-0.1,0.2C65.9,61.8,65.6,61.9,65.2,61.9L65.2,61.9z M60.1,61.4L60.1,61.4
			c-0.3-0.1-0.6-0.3-1-0.4c0-0.1,0-0.1,0-0.2c0,0,0.1,0,0.2,0c0.3,0.2,0.6,0.3,0.9,0.4c0.1,0,0.1,0.1,0.1,0.2c0,0,0,0,0,0
			C60.3,61.4,60.2,61.4,60.1,61.4z M58.3,60.4C58.3,60.4,58.3,60.4,58.3,60.4c-0.4-0.2-0.7-0.4-0.9-0.6c-0.1,0-0.1-0.1-0.1-0.2
			c0-0.1,0.1-0.1,0.2-0.1c0,0,0,0,0.1,0c0.3,0.2,0.5,0.4,0.8,0.6C58.4,60.2,58.4,60.3,58.3,60.4C58.4,60.4,58.3,60.4,58.3,60.4
			L58.3,60.4z M56.7,59.1C56.7,59.1,56.6,59.1,56.7,59.1c-0.3-0.2-0.6-0.5-0.8-0.8c0,0-0.1-0.1,0-0.2c0,0,0,0,0,0c0.1,0,0.1,0,0.2,0
			c0.2,0.3,0.5,0.5,0.7,0.8C56.8,58.9,56.8,59,56.7,59.1C56.7,59.1,56.7,59.1,56.7,59.1L56.7,59.1z M55.3,57.5c0,0-0.1,0-0.1-0.1
			c-0.2-0.3-0.4-0.6-0.6-0.9c0-0.1,0-0.1,0.1-0.2c0.1,0,0.1,0,0.2,0.1c0.2,0.3,0.4,0.6,0.6,0.8c0,0,0.1,0.1,0,0.2
			C55.4,57.5,55.4,57.5,55.3,57.5C55.4,57.5,55.4,57.5,55.3,57.5L55.3,57.5z M54.3,55.7c-0.1,0-0.1,0-0.1-0.1
			c-0.1-0.3-0.3-0.6-0.4-1c0-0.1,0-0.1,0.1-0.2l0,0c0.1,0,0.1,0,0.2,0.1c0.1,0.3,0.3,0.6,0.4,0.9C54.4,55.6,54.4,55.6,54.3,55.7
			L54.3,55.7z M53.5,53.8c-0.1,0-0.1,0-0.1-0.1c-0.1-0.3-0.2-0.7-0.2-1c0-0.1,0-0.1,0.1-0.1c0,0,0,0,0,0c0.1,0,0.1,0,0.1,0.1
			c0.1,0.3,0.1,0.7,0.2,1C53.7,53.7,53.6,53.8,53.5,53.8L53.5,53.8z M53.1,51.8c-0.1,0-0.1-0.1-0.1-0.1c0-0.3,0-0.5,0-0.8
			c0-0.1,0-0.2,0-0.2c0-0.1,0.1-0.1,0.1-0.1l0,0l0,0c0.1,0,0.1,0.1,0.1,0.1c0,0,0,0,0,0c0,0.1,0,0.2,0,0.2c0,0.3,0,0.5,0,0.8
			C53.3,51.7,53.2,51.8,53.1,51.8C53.2,51.8,53.2,51.8,53.1,51.8L53.1,51.8z M53.2,49.7L53.2,49.7c-0.1,0-0.1-0.1-0.1-0.1
			c0,0,0,0,0,0c0-0.3,0.1-0.7,0.2-1c0-0.1,0.1-0.1,0.2-0.1c0.1,0,0.1,0.1,0.1,0.1c0,0,0,0,0,0c-0.1,0.3-0.1,0.7-0.2,1
			C53.3,49.7,53.3,49.7,53.2,49.7L53.2,49.7z M53.7,47.7L53.7,47.7c-0.1,0-0.1-0.1-0.1-0.1c0,0,0,0,0,0c0.1-0.3,0.3-0.7,0.4-1
			c0-0.1,0.1-0.1,0.2-0.1c0,0,0,0,0,0c0.1,0,0.1,0.1,0.1,0.2c-0.1,0.3-0.3,0.6-0.4,0.9C53.8,47.7,53.8,47.7,53.7,47.7L53.7,47.7z
			 M54.6,45.9C54.6,45.9,54.6,45.9,54.6,45.9c-0.1-0.1-0.1-0.1-0.1-0.2c0.2-0.3,0.4-0.6,0.6-0.8c0.1,0,0.1,0,0.2,0
			c0,0,0.1,0.1,0,0.2c0,0,0,0,0,0c-0.2,0.3-0.4,0.6-0.6,0.8C54.7,45.9,54.7,45.9,54.6,45.9L54.6,45.9z"/>
		<path class="st2" d="M108.4,31.7c0,1.1-0.4,2.1-1.2,2.9l0,0c-0.8,0.8-1.8,1.2-2.9,1.2c-1.1,0-2.1-0.4-2.9-1.2l0,0
			c-0.8-0.8-1.2-1.8-1.2-2.9c0-2.3,1.8-4.1,4.1-4.1C106.5,27.6,108.4,29.4,108.4,31.7C108.4,31.7,108.4,31.7,108.4,31.7z"/>
		<path class="st10" d="M106.5,28.1c-0.7-0.4-1.4-0.6-2.2-0.6c-2.4,0-4.3,1.9-4.3,4.3l0,0c0,0.2,0,0.3,0,0.4
			c0.1,0.9,0.5,1.8,1.2,2.5l0.1,0.1c1.7,1.7,4.4,1.7,6.1,0c0,0,0,0,0,0v-0.1l0,0c0.8-0.8,1.2-1.8,1.2-2.9
			C108.5,30.2,107.7,28.8,106.5,28.1z M107,34.5c-0.7,0.7-1.7,1.1-2.7,1.2c-1,0-2-0.4-2.7-1.1l-0.1-0.1c-0.7-0.7-1.1-1.7-1.1-2.7
			c0-0.2,0-0.4,0-0.6c0.3-1.9,1.9-3.3,3.9-3.3c0.8,0,1.6,0.2,2.2,0.7c1,0.7,1.7,1.9,1.7,3.2C108.1,32.8,107.7,33.8,107,34.5
			L107,34.5z"/>
		<path class="st10" d="M105.6,32.9c0.9-0.7,1.1-2,0.4-3c-0.7-0.9-2-1.1-3-0.4c-0.5,0.4-0.8,1-0.8,1.7c0,0.7,0.3,1.3,0.8,1.7
			c-0.6,0.3-1,0.8-1.3,1.4l0,0c1.4,1.4,3.7,1.4,5.1,0c0,0,0,0,0,0l0,0C106.6,33.7,106.1,33.2,105.6,32.9z"/>
		<path class="st2" d="M93.9,38.4c0,0.6-0.2,1.2-0.7,1.6l0,0c-0.9,0.9-2.3,0.9-3.2,0c0,0,0,0,0,0l0,0c-0.9-0.9-0.9-2.4,0-3.3
			c0.9-0.9,2.4-0.9,3.3,0C93.7,37.2,93.9,37.8,93.9,38.4z"/>
		<path class="st11" d="M92.9,36.3c-0.4-0.2-0.8-0.3-1.2-0.3c-1.3,0-2.4,1.1-2.4,2.4c0,0,0,0,0,0c0,0.1,0,0.2,0,0.2
			c0.1,0.5,0.3,1,0.6,1.4l0,0c0.9,0.9,2.4,0.9,3.4,0c0,0,0,0,0,0l0,0l0,0c0.9-1,0.9-2.5-0.1-3.4C93.2,36.5,93,36.4,92.9,36.3
			L92.9,36.3z M93.2,40c-0.9,0.8-2.2,0.8-3.1,0l0,0c-0.4-0.4-0.6-1-0.6-1.5c0-0.1,0-0.2,0-0.3c0.2-1.2,1.3-2,2.5-1.9
			c1.1,0.1,1.9,1.1,1.9,2.2C93.9,39,93.7,39.5,93.2,40L93.2,40z"/>
		<path class="st11" d="M92.4,39.1c0.5-0.4,0.6-1.2,0.2-1.7c-0.4-0.5-1.2-0.6-1.7-0.2c-0.3,0.2-0.5,0.6-0.5,0.9
			c0,0.4,0.2,0.7,0.5,0.9c-0.3,0.2-0.6,0.4-0.7,0.8l0,0c0.8,0.8,2,0.8,2.8,0c0,0,0,0,0,0l0,0C93,39.5,92.7,39.2,92.4,39.1z"/>
		<path class="st2" d="M98.4,21.3c0,0.4-0.2,0.8-0.5,1.1l0,0c-0.3,0.3-0.7,0.5-1.1,0.5c-0.4,0-0.8-0.2-1.1-0.5l0,0
			c-0.3-0.3-0.5-0.7-0.5-1.1c0.1-0.9,0.8-1.5,1.7-1.5C97.7,19.9,98.3,20.5,98.4,21.3L98.4,21.3z"/>
		<path class="st11" d="M97.6,19.9c-0.8-0.5-1.8-0.2-2.3,0.5c-0.2,0.3-0.2,0.6-0.2,0.9c0,0.1,0,0.1,0,0.2c0,0.4,0.2,0.7,0.4,1l0,0
			c0.6,0.6,1.7,0.7,2.3,0c0,0,0,0,0,0l0,0l0,0c0.3-0.3,0.5-0.7,0.5-1.1C98.4,20.8,98.1,20.2,97.6,19.9z M97.8,22.4
			c-0.3,0.3-0.7,0.4-1.1,0.4c-0.4,0-0.8-0.2-1.1-0.4l0,0c-0.3-0.3-0.4-0.7-0.4-1.1c0-0.1,0-0.1,0-0.2c0.1-0.7,0.8-1.3,1.5-1.3
			c0.3,0,0.6,0.1,0.9,0.3c0.7,0.5,0.8,1.4,0.4,2.1C98,22.3,97.9,22.4,97.8,22.4L97.8,22.4z"/>
		<path class="st11" d="M97.3,21.8c0.4-0.3,0.4-0.8,0.2-1.1c-0.2-0.2-0.4-0.3-0.7-0.3c-0.4,0-0.8,0.4-0.8,0.8c0,0,0,0,0,0
			c0,0.3,0.1,0.5,0.3,0.6c-0.2,0.1-0.4,0.3-0.5,0.5l0,0c0.3,0.3,0.6,0.4,1,0.4c0.4,0,0.7-0.1,1-0.4l0,0
			C97.7,22.1,97.5,21.9,97.3,21.8z"/>
		<path class="st2" d="M67.8,29.9c0,0.4-0.2,0.8-0.5,1.1l0,0c-0.3,0.3-0.7,0.5-1.1,0.5c-0.4,0-0.8-0.2-1.1-0.5l0,0
			c-0.3-0.3-0.5-0.7-0.5-1.1c0.1-0.9,0.8-1.5,1.7-1.5C67.2,28.5,67.8,29.2,67.8,29.9L67.8,29.9z"/>
		<path class="st11" d="M67.1,28.5c-0.3-0.2-0.6-0.2-0.9-0.2c-0.9,0-1.7,0.7-1.7,1.7c0,0.1,0,0.1,0,0.2c0,0.4,0.2,0.7,0.4,1l0,0
			c0.7,0.6,1.7,0.6,2.4,0l0,0l0,0c0.3-0.3,0.5-0.7,0.5-1.1C67.9,29.4,67.6,28.8,67.1,28.5z M67.3,31c-0.3,0.3-0.7,0.4-1.1,0.4
			c-0.4,0-0.8-0.2-1.1-0.4l0,0c-0.3-0.3-0.4-0.7-0.4-1.1c0-0.1,0-0.1,0-0.2c0.1-0.7,0.7-1.3,1.5-1.3c0.3,0,0.6,0.1,0.9,0.3
			c0.4,0.3,0.6,0.7,0.6,1.2C67.8,30.4,67.6,30.7,67.3,31L67.3,31z"/>
		<path class="st11" d="M66.8,30.4c0.4-0.3,0.4-0.8,0.1-1.1c-0.3-0.4-0.8-0.4-1.1-0.1c-0.2,0.2-0.3,0.4-0.3,0.7
			c0,0.3,0.1,0.5,0.3,0.6c-0.2,0.1-0.4,0.3-0.5,0.5l0,0c0.3,0.3,0.6,0.4,1,0.4c0.4,0,0.7-0.1,1-0.4l0,0C67.2,30.7,67,30.5,66.8,30.4
			z"/>
		<path class="st2" d="M69.5,60.3c0,0.5-0.2,1-0.6,1.4l0,0c-0.4,0.4-0.9,0.6-1.4,0.6c-0.5,0-1-0.2-1.4-0.6l0,0
			c-0.8-0.8-0.8-2.1,0-2.8c0.8-0.8,2.1-0.8,2.8,0C69.3,59.3,69.5,59.7,69.5,60.3L69.5,60.3z"/>
		<path class="st11" d="M68.5,58.5c-1-0.6-2.3-0.3-2.9,0.7c-0.2,0.3-0.3,0.7-0.3,1.1c0,0.1,0,0.2,0,0.2c0,0.5,0.2,0.9,0.6,1.2l0,0
			c0.4,0.4,0.9,0.6,1.5,0.6c0.6,0,1.1-0.2,1.5-0.6l0,0l0,0c0.8-0.8,0.8-2.1-0.1-2.9C68.7,58.7,68.6,58.6,68.5,58.5L68.5,58.5z
			 M68.8,61.7c-0.7,0.7-1.9,0.7-2.7,0l0,0c-0.4-0.4-0.6-0.8-0.6-1.3c0-0.1,0-0.2,0-0.3c0.2-1,1.2-1.7,2.2-1.6
			c0.9,0.2,1.6,0.9,1.6,1.8C69.4,60.8,69.2,61.3,68.8,61.7L68.8,61.7z"/>
		<path class="st11" d="M68.1,60.9c0.3-0.2,0.4-0.5,0.4-0.8c0-0.6-0.5-1-1.1-0.9c-0.6,0-1,0.5-0.9,1.1c0,0.3,0.1,0.5,0.3,0.7
			c-0.3,0.1-0.5,0.4-0.6,0.7l0,0c0.3,0.3,0.8,0.5,1.2,0.5c0.5,0,0.9-0.2,1.2-0.5l0,0C68.6,61.3,68.4,61,68.1,60.9z"/>
		<path class="st2" d="M77.8,68.5c0,0.4-0.2,0.7-0.4,1l0,0c-0.3,0.3-0.6,0.4-1,0.4c-0.4,0-0.7-0.2-1-0.4l0,0c-0.6-0.6-0.6-1.5,0-2.1
			c0.6-0.6,1.5-0.6,2.1,0C77.8,67.7,77.9,68.1,77.8,68.5L77.8,68.5z"/>
		<path class="st11" d="M77.2,67.2C76.9,67,76.7,67,76.4,67c-0.9,0-1.5,0.7-1.5,1.5c0,0,0,0.1,0,0.2c0,0.3,0.2,0.7,0.4,0.9l0,0
			c0.3,0.3,0.7,0.5,1.1,0.4c0.4,0,0.8-0.2,1.1-0.4l0,0l0,0c0.6-0.6,0.6-1.6-0.1-2.2C77.3,67.3,77.2,67.2,77.2,67.2L77.2,67.2z
			 M77.4,69.5c-0.5,0.6-1.4,0.6-2,0c0,0,0,0,0,0l0,0c-0.3-0.3-0.4-0.6-0.4-1c0-0.1,0-0.1,0-0.2c0.1-0.7,0.7-1.2,1.4-1.2
			c0.8,0,1.4,0.6,1.4,1.4C77.7,68.9,77.6,69.2,77.4,69.5L77.4,69.5z"/>
		<path class="st11" d="M76.8,68.9c0.3-0.3,0.4-0.7,0.1-1.1c-0.3-0.3-0.7-0.4-1.1-0.1c-0.2,0.1-0.3,0.4-0.3,0.6
			c0,0.2,0.1,0.5,0.3,0.6c-0.2,0.1-0.4,0.3-0.4,0.5l0,0c0.2,0.2,0.6,0.4,0.9,0.4c0.3,0,0.7-0.1,0.9-0.4l0,0
			C77.2,69.2,77,69.1,76.8,68.9z"/>
		<path class="st2" d="M102.3,62.4c0,0.4-0.2,0.7-0.4,1l0,0c-0.6,0.6-1.5,0.6-2.1,0l0,0c-0.3-0.3-0.4-0.6-0.4-1
			c0-0.8,0.7-1.5,1.5-1.5S102.3,61.6,102.3,62.4L102.3,62.4z"/>
		<path class="st11" d="M101.7,61.1c-0.2-0.1-0.5-0.2-0.8-0.2c-0.8,0-1.5,0.7-1.5,1.5c0,0,0,0,0,0c0,0.1,0,0.1,0,0.2
			c0,0.3,0.2,0.7,0.4,0.9l0,0c0.6,0.6,1.6,0.6,2.2,0c0,0,0,0,0,0l0,0l0,0c0.3-0.3,0.4-0.7,0.4-1.1C102.4,61.8,102.1,61.3,101.7,61.1
			z M101.8,63.4c-0.3,0.3-0.6,0.4-1,0.4c-0.4,0-0.7-0.1-1-0.4l0,0c-0.3-0.3-0.4-0.6-0.4-1c0-0.1,0-0.1,0-0.2
			c0.1-0.7,0.7-1.2,1.4-1.2c0.3,0,0.6,0.1,0.8,0.3c0.6,0.4,0.8,1.3,0.3,2C101.9,63.3,101.9,63.3,101.8,63.4L101.8,63.4z"/>
		<path class="st11" d="M101.3,62.8c0.2-0.1,0.3-0.4,0.3-0.6c0-0.4-0.4-0.7-0.9-0.7c-0.4,0-0.6,0.3-0.7,0.7c0,0.2,0.1,0.5,0.3,0.6
			c-0.2,0.1-0.4,0.3-0.4,0.5l0,0c0.5,0.5,1.3,0.5,1.8,0c0,0,0,0,0,0l0,0C101.7,63.1,101.5,62.9,101.3,62.8z"/>
		<path class="st2" d="M104.2,55.7c0,0.3-0.1,0.5-0.3,0.7l0,0c-0.2,0.2-0.4,0.3-0.7,0.3c-0.3,0-0.5-0.1-0.7-0.3l0,0
			c-0.2-0.2-0.3-0.4-0.3-0.7c0.1-0.5,0.7-0.8,1.2-0.7C103.9,55.1,104.1,55.4,104.2,55.7z"/>
		<path class="st11" d="M103.8,54.9c-0.2-0.1-0.3-0.1-0.5-0.1c-0.6,0-1,0.4-1,1c0,0,0,0.1,0,0.1c0,0.2,0.1,0.4,0.3,0.6l0,0
			c0.2,0.2,0.4,0.3,0.7,0.3c0.3,0,0.5-0.1,0.7-0.3l0,0l0,0c0.2-0.2,0.3-0.4,0.3-0.7C104.3,55.4,104.1,55.1,103.8,54.9z M103.9,56.4
			c-0.2,0.2-0.4,0.3-0.6,0.3c-0.2,0-0.5-0.1-0.6-0.3l0,0c-0.2-0.2-0.3-0.4-0.3-0.7c0,0,0-0.1,0-0.1c0.1-0.5,0.5-0.8,0.9-0.8
			c0.2,0,0.4,0.1,0.5,0.2c0.2,0.2,0.4,0.5,0.4,0.8C104.2,56,104.1,56.2,103.9,56.4L103.9,56.4z"/>
		<path class="st11" d="M103.6,56c0.2-0.2,0.3-0.5,0.1-0.7c-0.1-0.1-0.2-0.2-0.4-0.2c-0.3,0-0.5,0.2-0.5,0.5c0,0.2,0.1,0.3,0.2,0.4
			c-0.1,0.1-0.2,0.2-0.3,0.3l0,0c0.2,0.2,0.4,0.3,0.6,0.2c0.2,0,0.4-0.1,0.6-0.2l0,0C103.8,56.2,103.7,56.1,103.6,56z"/>
		<path class="st2" d="M76.4,45.3c0,0.3-0.1,0.5-0.3,0.7l0,0c-0.2,0.2-0.4,0.3-0.7,0.3c-0.3,0-0.5-0.1-0.7-0.3l0,0
			c-0.4-0.4-0.5-1-0.1-1.4c0.4-0.4,1-0.5,1.4-0.1C76.3,44.7,76.4,45,76.4,45.3z"/>
		<path class="st11" d="M76,44.5c-0.5-0.3-1.1-0.1-1.4,0.3c-0.1,0.2-0.1,0.3-0.1,0.5v0.1c0,0.2,0.1,0.4,0.3,0.6l0,0
			c0.2,0.2,0.4,0.3,0.7,0.3c0.3,0,0.5-0.1,0.7-0.3l0,0l0,0c0.2-0.2,0.3-0.4,0.3-0.7C76.4,45,76.3,44.7,76,44.5z M76.1,46
			c-0.4,0.3-0.9,0.3-1.3,0l0,0c-0.2-0.2-0.3-0.4-0.3-0.7c0,0,0-0.1,0-0.1c0.1-0.5,0.5-0.8,0.9-0.8c0.2,0,0.4,0.1,0.5,0.2
			c0.2,0.2,0.4,0.5,0.4,0.8C76.4,45.6,76.3,45.8,76.1,46L76.1,46z"/>
		<path class="st11" d="M75.8,45.7c0.1-0.1,0.2-0.2,0.2-0.4c0-0.3-0.2-0.5-0.5-0.5S75,45,75,45.3c0,0.2,0.1,0.3,0.2,0.4
			c-0.1,0.1-0.2,0.2-0.3,0.3l0,0c0.2,0.2,0.4,0.3,0.6,0.2c0.2,0,0.4-0.1,0.6-0.2l0,0C76,45.9,75.9,45.7,75.8,45.7z"/>
		<path class="st12" d="M70.5,50.1v3.4c0,0.4-0.3,0.8-0.7,0.9h-0.2h-4.1v1.3c0,0,0,0.1,0,0.1c-0.1,0.1-0.3,0.1-0.4,0c0,0,0,0,0,0
			l-1.5-1.5h-0.4c-0.5,0-0.9-0.4-0.9-0.9c0,0,0,0,0,0v-3.4c0-0.1,0-0.1,0-0.2c0.1-0.4,0.5-0.7,0.9-0.7h6.5
			C70.1,49.2,70.5,49.6,70.5,50.1z"/>
		<path class="st2" d="M65.4,51.2v1.6c0.7,0.4,1.6,0.6,2.4,0.5c1-0.2,1.2-2.2,0.8-2.5S66.7,51,66.7,51c0.2-0.2,0.3-0.3,0.5-0.5
			c0.4-0.5-0.2-1.1-0.4-0.7S65.5,50.3,65.4,51.2z"/>
		<path class="st2" d="M64.4,50.9h0.5c0.1,0,0.2,0.1,0.2,0.2v1.5c0,0.1-0.1,0.2-0.2,0.2h-0.5c-0.1,0-0.2-0.1-0.2-0.2v-1.5
			C64.1,51,64.2,50.9,64.4,50.9z"/>
		<path class="st12" d="M102.7,57.9v1.3c0,0.2-0.1,0.3-0.3,0.3h-1.7v0.5c0,0,0,0,0,0.1c0,0-0.1,0-0.2,0c0,0,0,0,0,0l-0.6-0.6h-0.1
			c-0.2,0-0.3-0.1-0.3-0.3v-1.4c0-0.2,0.2-0.3,0.3-0.3h2.5C102.6,57.6,102.7,57.8,102.7,57.9z"/>
		<path class="st2" d="M100.8,58.4V59c0.3,0.2,0.6,0.2,0.9,0.2c0.4-0.1,0.5-0.8,0.3-1s-0.7,0.1-0.7,0.1c0.1-0.1,0.1-0.1,0.2-0.2
			c0.2-0.2-0.1-0.4-0.2-0.3S100.8,58,100.8,58.4z"/>
		<path class="st2" d="M100.4,58.3h0.2c0,0,0.1,0,0.1,0.1v0.6c0,0,0,0.1-0.1,0.1h-0.2c0,0-0.1,0-0.1-0.1L100.4,58.3
			C100.3,58.3,100.3,58.3,100.4,58.3z"/>
		<path class="st12" d="M69.8,23.5v2.1c0,0.2-0.2,0.5-0.4,0.5h-2.6v0.8c0,0,0,0.1,0,0.1c-0.1,0.1-0.2,0.1-0.2,0c0,0,0,0,0,0L65.7,26
			h-0.2c-0.3,0-0.5-0.2-0.5-0.5c0,0,0,0,0,0v-2c0,0,0-0.1,0-0.1c0-0.2,0.3-0.4,0.5-0.4h3.9C69.6,23,69.8,23.2,69.8,23.5z"/>
		<path class="st2" d="M68.4,25.6l-0.8-0.3c-0.1,0-0.3,0.1-0.4,0.1c-0.5-0.1-0.8-0.5-0.8-1c0.1-0.5,0.5-0.8,1-0.8
			c0.5,0.1,0.8,0.4,0.8,0.9c0,0.2-0.1,0.3-0.2,0.5L68.4,25.6z"/>
		<path class="st12" d="M76.7,41.9V43c0,0.1-0.1,0.2-0.2,0.3h-1.3v0.4l0,0c0,0-0.1,0-0.1,0c0,0,0,0,0,0l-0.5-0.5h-0.1
			c-0.1,0-0.3-0.1-0.3-0.3c0,0,0,0,0,0v-1.1c0-0.1,0.1-0.2,0.3-0.2h2C76.6,41.6,76.7,41.8,76.7,41.9z"/>
		<path class="st2" d="M76,43l-0.4-0.2c-0.1,0-0.1,0-0.2,0c-0.3,0-0.5-0.1-0.5-0.4s0.1-0.5,0.4-0.5c0,0,0.1,0,0.1,0
			c0.3,0,0.5,0.2,0.5,0.5c0,0,0,0,0,0c0,0.1,0,0.2-0.1,0.2L76,43z"/>
		<path class="st12" d="M79.2,63.2V65c0,0.2-0.1,0.4-0.4,0.4h-2.2V66c0,0,0,0.1,0,0.1c0,0.1-0.1,0.1-0.2,0c0,0,0,0,0,0l-0.7-0.7
			h-0.2c-0.2,0-0.4-0.2-0.4-0.4c0,0,0,0,0,0v-1.8c0-0.2,0.2-0.4,0.4-0.4h3.3C79,62.8,79.2,63,79.2,63.2
			C79.2,63.2,79.2,63.2,79.2,63.2z"/>
		<path class="st2" d="M78,65l-0.7-0.3c-0.1,0-0.2,0-0.3,0c-0.4-0.1-0.7-0.5-0.6-0.9c0.1-0.4,0.5-0.7,0.9-0.6
			c0.4,0.1,0.6,0.4,0.6,0.8c0,0.1,0,0.3-0.1,0.4L78,65z"/>
		<g class="st13">
			<path d="M109.7,14c-1.2-2.2-4-3-6.2-1.7c-1.4,0.8-2.3,2.3-2.3,4c0.2,1.6,0.8,3.1,1.6,4.4c0.8,1.7,1.8,3.3,2.4,4.3
				c0.2,0.3,0.6,0.4,0.9,0.3c0.1-0.1,0.2-0.1,0.3-0.3c1.2-2,4-6.8,4-8.7C110.3,15.5,110.1,14.7,109.7,14z M107.9,18.2
				c-0.5,0.6-1.3,1-2.2,1c-1.6,0.3-3.2-0.8-3.5-2.4c-0.3-1.6,0.8-3.2,2.4-3.5c0.3-0.1,0.7-0.1,1,0c1.7,0.1,2.9,1.5,2.9,3.1
				C108.6,17.1,108.3,17.7,107.9,18.2z"/>
		</g>
		<path class="st12" d="M94.2,31.7v2.1c0,0.3-0.2,0.5-0.4,0.5l0,0h-0.1h-2.5v0.8c0,0,0,0.1,0,0.1c-0.1,0.1-0.2,0.1-0.2,0
			c0,0,0,0,0,0l-1-0.9h-0.3c-0.3,0-0.5-0.2-0.5-0.5v-2.1c0,0,0-0.1,0-0.1c0.1-0.3,0.3-0.4,0.5-0.4h3.9
			C93.9,31.1,94.2,31.3,94.2,31.7C94.2,31.6,94.2,31.7,94.2,31.7z"/>
		<path class="st2" d="M92.9,32.2c0.2,0.6-0.2,1.3-0.8,1.5c-0.6,0.2-1.3-0.2-1.5-0.8c-0.1-0.2-0.1-0.4,0-0.6
			C91.4,32,92.2,32,92.9,32.2z"/>
		<path class="st9" d="M107.7,12.2c-1.2-2.2-4-3-6.2-1.7c-1.4,0.8-2.3,2.3-2.3,4c0.2,1.5,0.8,3,1.6,4.4c0.8,1.7,1.8,3.3,2.4,4.3
			c0.2,0.3,0.6,0.4,0.9,0.3c0.1-0.1,0.2-0.1,0.3-0.3c1.2-2,4-6.8,4-8.7C108.3,13.7,108.1,12.9,107.7,12.2z M105.9,16.4
			c-1.1,1.3-3,1.4-4.2,0.3c-1.3-1.1-1.4-3-0.3-4.2c0.6-0.7,1.5-1.1,2.4-1.1c0.7,0,1.4,0.3,1.9,0.7c0.6,0.6,1,1.4,1,2.2
			C106.7,15.2,106.4,15.9,105.9,16.4z"/>
		<path class="st14" d="M40.8,66c-0.7,0-1.5,0.1-2.2,0.3c-0.4-6.8-6.1-12.2-13-12.1c-5,0-9.5,2.8-11.7,7.3c-0.4-0.1-0.9-0.1-1.3-0.1
			c-5.2,0.2-9.3,4.5-9.1,9.8c0.2,5,4.2,9,9.1,9.1h28.8l0,0c3-0.2,5.6-2.4,6.3-5.3c0.2-0.6,0.2-1.2,0.2-1.8
			C47.9,69.2,44.7,66,40.8,66C40.8,66,40.8,66,40.8,66z"/>
		<path class="st15" d="M44.8,70.5c0,0.6-0.1,1.1-0.2,1.7c0,0,0,0.1,0,0.1c-0.3,1.2-1,2.4-1.9,3.3c-1.2,1.2-2.8,1.9-4.4,2l0,0H9.5
			c-5.2,0-9.5-4.2-9.5-9.4c0-5.2,4.2-9.5,9.4-9.5c0.5,0,1,0,1.4,0.1c1.1-2.3,2.9-4.2,5.1-5.5c1.7-1,3.6-1.6,5.6-1.8c0.3,0,0.7,0,1,0
			c1.7,0,3.5,0.4,5.1,1.1c3,1.3,5.5,3.6,6.8,6.6l0,0c0.6,1.4,1,2.9,1.1,4.4c0.7-0.2,1.4-0.3,2.2-0.3c3.9,0,7.1,3.1,7.1,7
			C44.7,70.4,44.7,70.4,44.8,70.5L44.8,70.5z"/>
		<path class="st8" d="M44.6,72.3c-0.3,1.2-1,2.4-1.9,3.3c-1.2,1.2-2.8,1.9-4.4,2l0,0H9.5c-5.2,0-9.5-4.2-9.5-9.4
			c0-5.2,4.2-9.5,9.4-9.5c0.5,0,1,0,1.4,0.1c1.1-2.3,2.9-4.2,5.1-5.5c-8.3,9-1.8,19.1,5.4,20.2c1,0.2,2,0.2,3-0.1
			c3-0.7,6.1-1.4,9-1.9c1.9-0.3,3.8-0.5,5.8-0.6C41,70.9,42.9,71.3,44.6,72.3z"/>
		<path class="st2" d="M3.6,70.1c-0.2,0-0.3-0.1-0.4-0.3c-0.7-2.8,0.2-5.7,2.3-7.6c0.2-0.1,0.4-0.1,0.6,0.1c0.1,0.2,0.1,0.4,0,0.5
			c-2,1.6-2.8,4.3-2.1,6.7C4.1,69.8,4,70,3.7,70.1L3.6,70.1z"/>
		<g class="st13">
			<path class="st16" d="M38.4,60.8c1.1-0.5,2.2-1.1,3.5-1.8c0.3,0.3,0.5,0.4,0.6,0.4c0.2,0,0.4-0.1,0.6-0.1
				c0.6,0.1,1.3,0.9,1.7,0.7c0.2-0.1-0.7-1.5-1.7-1.9s-1.4-0.3-1.4-0.3c-3.2,0.6-5.7,1.1-7.3,1.3l0,0c-0.7,0.1-1.4,0.2-2.1,0.2h-0.1
				c-1.2-1.1-2.4-2-3.7-2.9c-0.6-0.1-1.2-0.2-1.8-0.2c-0.2-0.1-0.2-0.2-0.3-0.3c0.4-0.2,0.7-0.5,0.8-0.9c0,0-0.1,0-0.1-0.1
				c0.4-0.7,0.6-1.6,0.5-2.4l0.1-0.1c0.2-0.1,0.4-0.2,0.6-0.4c2.7-2.3,0.1-5.1-4-3.3c-1.3-0.2-2,0.4-2.3,1.9
				c-0.2,0.2-0.4,0.5-0.5,0.7c-0.3,0.7,0,1.4,0.8,2c-0.4,0.7-0.2,1.3,0.7,1.8c0.3,0.2,0.6,0.2,0.9,0.2c0,0.5-0.2,0.9-0.6,1.2
				c0,0,0.1,0,0.1,0c-0.9,0.3-1.9,0.6-2.7,1.1c0,0,0,0-0.1,0c-1.9,2.7-2.7,6-2.4,9.2c0.1,1.2,0.8,1.7,2.1,1.6
				c0.2,1.1,0.5,2.3,0.8,3.4h0.2c-0.1,0.5-0.1,1,0,1.5l0,0c0.4,2.4,6.1,2.9,9.3,2.7c-0.3,0.4-0.6,0.8-0.8,1.2
				c-1.3,2.5-2.7,7.1-4.1,13.8c-0.6,0.3-1,0.9-0.9,1.5c1.6,0.7,3.3,1.2,5.1,1.5c0.8-0.9-1.7-1.1-2.1-2.5h-0.1
				c2.9-4.6,5.5-9.3,7.7-14.2c0.8-2,1-3.3,0.6-3.8c-0.6-1-1.5-1.7-2.6-2.2c-0.6-0.3-1.3-0.5-1.9-0.7c1.8-1.4,3.4-3.2,4.7-5.1
				c0.7,1.9,1.7,3.7,3,5.2c0.9,1.3,2.1,2.8,3.6,4.5c0.9-0.9,1.6-2,1.9-3.3c0,0,0-0.1,0-0.1c-1.5-3.5-2.9-6.2-4-8.2
				C40,62.8,39.3,61.8,38.4,60.8z M31,62.7c0.1,0,0.2,0.1,0.2,0.1c-0.1,0.2-0.3,0.3-0.4,0.4L31,62.7z M28.8,61.9l-0.1,0.5
				c0-0.2-0.1-0.4-0.1-0.6L28.8,61.9z"/>
			<path class="st16" d="M86.7,79.4c-1-5-2.6-8.1-5-9.1c-1-0.3-1.9-0.6-2.9-0.8l0,0c-0.9-0.5-0.7-1.1-0.4-2.1c0.5-0.1,1-0.4,1.2-0.9
				c0.4-0.7,0.2-1,0.8-1.9c0.6-1,0.2-2.2-0.7-2.7c-0.3-0.2-0.6-0.2-0.9-0.3c-0.6-1-1.6-1.7-2.8-1.9c-3.4-0.3-2.8,2.8-1.6,3.7
				c-0.4,1.1-0.5,2.3-0.3,3.4c0.2,0.6,0.9,1,1.5,0.9c0.1,0.8-0.1,1.1-1,1.1v0.1c-0.7,0-1.4,0-2.1,0c-0.1,0-0.2,0-0.2,0
				c-0.2,0-0.4,0-0.7,0l0,0c-0.5,0.1-0.9,0.3-1.3,0.5c-1.7,1.5-3.2,3.2-4.4,5.1c-3.6,0.7-7.1,0.9-10,1.5c-1.7,0.3-2.3,0.6-2.2,0.8
				c-1.3,0.4-2.6,1.5-2.6,2.7c0,0.1,0,0.2,0,0.4v10.4c8.8-0.1,16,2.4,23.3,4.8c0.5-1.3,1-2.4,1.4-3.5c0.3,1.3,0.6,2.6,1,4
				c0,0.1,0,0.2,0.1,0.3c1.8,0.6,3.5,1.1,5.3,1.6c-0.1-0.6-0.3-1-0.5-1.5c0.6-3.5,0.5-7-0.2-10.5l0.6-0.2c-0.1-0.7-0.2-1.4-0.2-2
				C85.4,81.9,87,80.7,86.7,79.4z M69.1,76.7c0.3-0.2,0.6-0.5,0.9-0.8c0,0.2,0,0.5,0.1,0.8H69.1z M81.6,80c-0.1-1.1-0.1-2.2-0.1-3.2
				c0.5,0.8,1.1,1.6,1.7,2.3C82.6,79.3,82.1,79.6,81.6,80L81.6,80z"/>
		</g>
		<ellipse class="st14" cx="26.5" cy="107.5" rx="19.9" ry="3.3"/>
		<path class="st17" d="M23.4,68.7c2.1,1.1,5.9-3.2,7.7-5.9c0.7,2.5,3.9,6.9,9.6,13.3c-0.2,0.4,0.2,0,1.4-0.9
			C37.3,63.3,34,57.3,32.2,57c-2.7-0.3-5.8,2-9.5,6.8C21.4,67.2,21.5,67.7,23.4,68.7z"/>
		<path class="st18" d="M39.9,75.1c-0.2,0.6-0.1,1.3,0.4,1.7c1.6-0.7,3.2-1.5,4.6-2.6c-0.1-1.2-1.9,0.4-3.3-0.3
			C41.1,74.8,40.5,75.2,39.9,75.1z"/>
		<path class="st19" d="M23.4,53.6c1.3,0.9,2.6,1.8,3.7,2.9c1.1,0,4.3-0.5,9.6-1.6c0.2,0.3,0.4,0.7,0.6,1c-5.8,3.1-9.6,4.4-11.1,4
			c-2.1-0.4-3.9-1.6-5.3-3.2C21.1,55.2,22.1,54,23.4,53.6z"/>
		<path class="st17" d="M16.4,70.6c0.4,2.4,6,2.9,9.3,2.7c-1.6,2-3.3,7.2-5,15.6c-0.4,0,0.1,0.2,1.6,0.5c6.7-10.9,9.6-17.2,8.7-18.7
			c-1.4-2.3-5.1-3.5-11.1-3.6C16.4,68.1,15.9,68.5,16.4,70.6z"/>
		<path class="st18" d="M20.8,88.4c-0.5,0.2-0.9,0.7-1,1.5c1.6,0.7,3.3,1.2,5.1,1.4c0.8-0.9-1.7-1.1-2.1-2.6
			C21.8,89.1,21.1,89,20.8,88.4z"/>
		<path class="st6" d="M16.1,69.1c3.5,0.4,6.3-0.7,9.4-3.3c-1.9-2.9-2.3-6.9-2.1-12.2c-2.7-0.6-5.5-0.1-7.8,1.3
			C14.5,59.6,14.6,64.5,16.1,69.1z"/>
		<path class="st19" d="M15.6,54.9c-1.9,2.7-2.7,6-2.4,9.2c0.1,2.6,3.2,2.1,9.2-1.5c0.3-0.5,0.1-1.1-0.3-1.5
			c-1.9,0.6-3.9,1.1-5.8,1.4c0.2-1.2,0.9-2.5,1.1-4.2C17.9,56.6,16.8,54.2,15.6,54.9z"/>
		<path class="st20" d="M18.3,53.7c0.6-0.4,0.9-1.2,0.6-1.8c0.4-0.2,0.9-0.3,1.4-0.3c0.2-0.1,0.5-0.1,0.7,0c-0.2,0.9,0,1.5,0.7,1.8
			C20.8,54.3,19.3,54.4,18.3,53.7z"/>
		<path class="st20" d="M18.6,47.6c-0.8,1.1-0.9,2.6-0.2,3.8c1.3,1.4,2.4,1.9,3.1,1.3c1-1.4,1.2-3.1,0.6-4.7
			C21.2,47.3,19.8,47.1,18.6,47.6z"/>
		<path class="st21" d="M20.2,48.9c1.5,1.2,2,1.1,3.1,0.4c2.7-2.3,0.1-5.1-4-3.3c-1.3-0.2-2,0.4-2.3,1.9c-0.7,0.5-0.8,1.5-0.2,2.2
			c0.2,0.2,0.3,0.3,0.6,0.4c-0.4,0.7-0.2,1.3,0.7,1.8c0.5,0.3,0.9,0.3,1.1,0.1c0.3-0.4,0.4-0.9,0.3-1.3c-0.7-0.6-0.8-1-0.4-1.3
			c0.3,0,0.5,0.3,0.8,1.1C20.2,50.3,20.3,49.6,20.2,48.9z"/>
		<path class="st22" d="M24.5,62.4l-1.6,0.3c-0.3,0-0.4-0.2-0.3-0.5l1.2-3.2c0.1-0.3,0.4-0.6,0.8-0.7l1.6-0.3c0.3,0,0.4,0.2,0.3,0.5
			l-1.2,3.2C25.1,62.1,24.8,62.3,24.5,62.4z"/>
		<ellipse transform="matrix(0.7915 -0.6111 0.6111 0.7915 -30.9201 27.5863)" class="st2" cx="25" cy="59.1" rx="0.3" ry="0.2"/>
		<path class="st20" d="M22.4,62.7c0.4,0,0.7-0.2,1-0.4c0.7-1,0.3-1.6,0.3-1.6c-0.4-0.6-1,0.3-1.6,0.5L22.4,62.7z"/>
		<path class="st20" d="M36.7,54.9c0,0,0.4-0.2,1.4,0.3s1.9,1.8,1.7,1.9c-0.3,0.2-1.1-0.7-1.7-0.7s-0.7,0.3-1.3-0.3
			C36.6,55.7,36.5,55.3,36.7,54.9z"/>
		<path class="st21" d="M19.9,50.9c0,1.1,0.2,1.7,0.8,2s1.3-0.6,1.3-0.8s-0.7-0.1-0.9,0.2s-1-1.7-1-2.1S19.9,50.9,19.9,50.9z"/>
		<ellipse class="st14" cx="80.1" cy="111.5" rx="2.7" ry="0.5"/>
		<path class="st23" d="M65.3,66.4c-1.7,1.5-3.2,3.2-4.4,5.1c-3.7,0.7-7.1,0.9-10.1,1.5c-0.2,0.4-0.2,0.9,0,1.4
			c3.7,0.7,7.5,0.7,11.2,0.1c2.4-0.3,4.3-2.9,7.7-7.5C68.3,65.7,66.8,65.4,65.3,66.4z"/>
		<path class="st24" d="M65.9,79.5c-2.5,6-2.7,15.6-0.6,28.8c0.1,0.7,0.7,0.7,1.9,0.1c0.5-6.6,1-11.3,1.3-14.3
			c2.8-7.2,4.8-11.7,6-13.6C70.4,77.7,67.5,77.4,65.9,79.5z"/>
		<path class="st24" d="M69.1,80.8c0.6,3.3,1.4,7.2,2.7,11.8c0.7,3.6,3.2,9.1,7.6,16.7c0.4,0.1,0.9-0.1,1.6-0.9
			c-1.6-6.5-3-11.6-4.2-15.4c0.8-4.4,0.5-8.9-0.9-13.1C73.6,78.8,70.9,79.1,69.1,80.8z"/>
		<path class="st25" d="M64.5,83.1c1.7,1.5,5.9,1.2,12.6-0.9c-0.7-5-0.9-10-0.3-15c-3.2-1.2-6.7-1.6-10.1-1.4
			C62.9,70.6,66.7,73.4,64.5,83.1z"/>
		<path class="st20" d="M69.7,65.8c1.2-0.1,1.1-0.4,0.9-2.2c1-0.4,2.1-0.3,3,0.2c-0.4,1.4-0.8,2.1,0.3,2.7
			C71.7,68.4,68.8,68.2,69.7,65.8z"/>
		<path class="st20" d="M70.2,58.7c-1,1.5-1.3,3.3-1,5.1c0.4,1.1,1.5,1.3,4.3,0c0.9-1.3,1.1-3,0.4-4.4
			C72.8,58.5,71.4,58.3,70.2,58.7z"/>
		<path class="st23" d="M65.3,108.2c-0.9,1.5-3.1,1.6-2.5,2.4c0.8,0.4,4-0.1,5-0.8c0.1-0.6-0.1-1.2-0.4-1.7
			C66.7,108.7,65.9,108.7,65.3,108.2z"/>
		<path class="st23" d="M78.8,108.4c-0.2,1.8-2.2,2.7-1.3,3.3c0.9,0,3.6-1.7,4.3-2.7c-0.2-0.6-0.6-1.1-1.1-1.4
			C80.4,108.2,79.6,108.6,78.8,108.4z"/>
		<path class="st16" d="M70.3,60.6c1.7-0.5,1.4,0.7,0.6,1.3c0.3,0,0.6-0.1,0.8-0.3c0.3-0.3,0.8-0.2,0.6,0.3s-0.9,0.4-0.9,0.7
			s-0.1,1.4,0.9,1.7c0.9,0.3,1.8-0.1,2.2-0.9c0.4-0.7,0.2-0.9,0.7-1.9c0.6-1,0.2-2.2-0.7-2.7c-0.3-0.2-0.6-0.2-0.9-0.3
			c-0.6-1-1.6-1.7-2.8-1.9C66.8,56.3,68.6,61.1,70.3,60.6z"/>
		<path class="st26" d="M68.8,76.2v31.7c-0.2,1.7-1.5,3-3.2,3.2l0,0l-8.5-0.3l-7.6-0.3c-1.2,0-2.2-0.8-2.5-2c0-0.2-0.1-0.4-0.1-0.6
			l-0.4-15.7l-0.3-9.8l-0.2-5.9l0,0c0-1.4,2-2.8,3.4-2.8h16.7C67.6,73.6,68.8,74.8,68.8,76.2C68.8,76.2,68.8,76.2,68.8,76.2z"/>
		<path class="st9" d="M67.9,76.8v31.7c0,1.3-1,2.4-2.3,2.6l0,0h-0.3H48.6c-1.4,0-2.6-1.2-2.6-2.6v0V76.8c0-0.1,0-0.2,0-0.4l0,0
			c0.2-1.3,1.3-2.2,2.5-2.2h16.7C66.7,74.2,67.9,75.3,67.9,76.8C67.9,76.8,67.9,76.8,67.9,76.8z"/>
		<path class="st27" d="M67.4,78v29.3c0,0.9-0.7,1.5-1.5,1.5H48.1c-0.9,0-1.5-0.7-1.5-1.5V78c0-0.9,0.7-1.5,1.5-1.5h17.9
			C66.8,76.5,67.4,77.2,67.4,78z"/>
		<circle class="st27" cx="59.6" cy="75.4" r="0.4"/>
		<path class="st27" d="M53.4,75.2h5.2c0.1,0,0.2,0.1,0.2,0.2v0c0,0.1-0.1,0.2-0.2,0.2h-5.2c-0.1,0-0.2-0.1-0.2-0.2v0
			C53.2,75.3,53.3,75.2,53.4,75.2z"/>
		<path class="st8" d="M67.4,78v1.7H46.5V78c0-0.9,0.7-1.5,1.5-1.5h17.9C66.8,76.5,67.4,77.2,67.4,78z"/>
		<path class="st2" d="M51.8,83.8c0,0.5-0.2,0.9-0.5,1.3l0,0c-0.7,0.7-1.9,0.7-2.6,0l0,0c-0.7-0.7-0.7-1.9,0-2.6
			c0.3-0.3,0.8-0.5,1.3-0.5C51,82,51.8,82.8,51.8,83.8C51.8,83.8,51.8,83.8,51.8,83.8z"/>
		<path class="st2" d="M53.3,80.3h13.5c0.3,0,0.6,0.3,0.6,0.6v6.3c0,0.3-0.3,0.6-0.6,0.6H53.3c-0.3,0-0.6-0.3-0.6-0.6v-6.3
			C52.8,80.5,53,80.3,53.3,80.3z"/>
		<path class="st3" d="M54.1,80.8H57c0.4,0,0.7,0.3,0.7,0.7v4.7c0,0.4-0.3,0.7-0.7,0.7h-2.9c-0.4,0-0.7-0.3-0.7-0.7v-4.7
			C53.5,81.1,53.8,80.8,54.1,80.8z"/>
		<path class="st3" d="M59,80.8h2.9c0.4,0,0.7,0.3,0.7,0.7v4.7c0,0.4-0.3,0.7-0.7,0.7H59c-0.4,0-0.7-0.3-0.7-0.7v-4.7
			C58.4,81.1,58.7,80.8,59,80.8z"/>
		<path class="st3" d="M63.9,80.8h2.9c0.4,0,0.7,0.3,0.7,0.7v4.7c0,0.4-0.3,0.7-0.7,0.7h-2.9c-0.4,0-0.7-0.3-0.7-0.7v-4.7
			C63.2,81.1,63.5,80.8,63.9,80.8z"/>
		<path class="st2" d="M48.5,77.5H52c0.3,0,0.6,0.3,0.6,0.6v0c0,0.3-0.3,0.6-0.6,0.6h-3.4c-0.3,0-0.6-0.3-0.6-0.6v0
			C47.9,77.7,48.2,77.5,48.5,77.5z"/>
		<path class="st2" d="M66.6,94.2c0,0.5-0.2,0.9-0.5,1.3l0,0c-0.7,0.7-1.9,0.7-2.6,0l0,0c-0.3-0.3-0.5-0.8-0.5-1.3
			c-0.1-1,0.7-1.9,1.7-2s1.9,0.7,2,1.7C66.6,94,66.6,94.1,66.6,94.2L66.6,94.2z"/>
		<path class="st2" d="M49.1,92.3h9.5c0.3,0,0.5,0.2,0.5,0.5v2.5c0,0.3-0.2,0.5-0.5,0.5h-9.5c-0.3,0-0.5-0.2-0.5-0.5v-2.5
			C48.6,92.6,48.8,92.3,49.1,92.3z"/>
		<path class="st28" d="M49.5,93.2h3.6c0.2,0,0.3,0.1,0.3,0.3l0,0c0,0.2-0.1,0.3-0.3,0.3h-3.6c-0.2,0-0.3-0.1-0.3-0.3l0,0
			C49.2,93.4,49.3,93.2,49.5,93.2z"/>
		<path class="st28" d="M49.5,94.4h8c0.2,0,0.3,0.1,0.3,0.3l0,0c0,0.2-0.1,0.3-0.3,0.3h-8c-0.2,0-0.3-0.1-0.3-0.3l0,0
			C49.2,94.5,49.3,94.4,49.5,94.4z"/>
		<path class="st2" d="M51.8,101.5c0,0.5-0.2,0.9-0.5,1.3l0,0c-0.7,0.7-1.9,0.7-2.6,0c0,0,0,0,0,0l0,0c-0.3-0.3-0.5-0.8-0.5-1.3
			c0-1,0.8-1.8,1.8-1.8C51,99.7,51.8,100.5,51.8,101.5C51.8,101.5,51.8,101.5,51.8,101.5z"/>
		<path class="st2" d="M53.9,99.6h11.5c0.4,0,0.8,0.3,0.8,0.8v4.7c0,0.4-0.3,0.8-0.8,0.8H53.9c-0.4,0-0.8-0.3-0.8-0.8v-4.7
			C53.2,100,53.5,99.6,53.9,99.6z"/>
		<path class="st3" d="M54.5,100.6h3.6c0.2,0,0.3,0.1,0.3,0.3l0,0c0,0.2-0.1,0.3-0.3,0.3h-3.6c-0.2,0-0.3-0.1-0.3-0.3l0,0
			C54.2,100.7,54.4,100.6,54.5,100.6z"/>
		<path class="st3" d="M54.5,102.9h10.1c0.2,0,0.3,0.1,0.3,0.3l0,0c0,0.2-0.1,0.3-0.3,0.3H54.5c-0.2,0-0.3-0.1-0.3-0.3l0,0
			C54.2,103,54.4,102.9,54.5,102.9z"/>
		<path class="st3" d="M54.5,104h8.2c0.2,0,0.3,0.1,0.3,0.3l0,0c0,0.2-0.1,0.3-0.3,0.3h-8.2c-0.2,0-0.3-0.1-0.3-0.3l0,0
			C54.2,104.1,54.4,104,54.5,104z"/>
		<path class="st3" d="M54.5,101.7h10.1c0.2,0,0.3,0.1,0.3,0.3l0,0c0,0.2-0.1,0.3-0.3,0.3H54.5c-0.2,0-0.3-0.1-0.3-0.3l0,0
			C54.2,101.9,54.4,101.7,54.5,101.7z"/>
		<path class="st23" d="M76.7,67.2c2.4,1,4,4.1,5,9.1c0.4,1.8-3.2,3.7-10.7,5.6c-0.4-0.3-0.7-0.8-0.7-1.4c2.6-1.5,5.2-3,7.8-4.6
			c-2-2.4-2.9-4-3.2-5.5C74.7,68.6,75.2,67.1,76.7,67.2z"/>
		<path class="st20" d="M70.4,80.6c-0.8-0.3-2.6-0.1-2.7,0.6s0.4,2.2,1.9,1.7s1.5-0.9,1.5-0.9L70.4,80.6z"/>
		<path class="st20" d="M50.9,73c-2.3,0.4-2.6,0.9-1.8,0.8c0.6-0.1,1.1-0.2,1.7-0.2C51,73.7,50.9,73,50.9,73z"/>
	</g>
</g>
</svg>
