<?xml version="1.0" encoding="utf-8"?>
<!-- Generator: Adobe Illustrator 24.0.3, SVG Export Plug-In . SVG Version: 6.00 Build 0)  -->
<svg version="1.1" id="Layer_1" xmlns="http://www.w3.org/2000/svg" xmlns:xlink="http://www.w3.org/1999/xlink" x="0px" y="0px"
	 viewBox="0 0 953.1 251" style="enable-background:new 0 0 953.1 251;" xml:space="preserve">
<style type="text/css">
	.st0{fill:#FFFFFF;}
</style>
<g>
	<path class="st0" d="M0,250.9v-116h89.3v-21.6H0V0.1h247.5v113.1h-90v21.6h90v116H0z M226,229.1v-72.3H178v25.8H202v46.4H226z
		 M180.4,229.1v-24.5h-23.9v-69.1h-22.1v93.6H180.4z M113,229.1v-93.7H90.9v69.1H67v24.6H113z M45.5,229.1v-46.4h23.9v-25.8H21.5
		v72.3H45.5z M156.6,112.5V46.2h23.9V22h-46v90.6L156.6,112.5L156.6,112.5z M113,112.5V22H67v24.2h23.9v66.3L113,112.5L113,112.5z
		 M226,91.3V22h-24v46.1H178v23.3L226,91.3L226,91.3z M69.4,91.3V68.1H45.5V22h-24v69.4L69.4,91.3L69.4,91.3z"/>
</g>
<g>
	<path class="st0" d="M342.8,58.5v50.8h52.6V58.5H424v132.4h-28.6v-57.1h-52.6v57.1h-28.6V58.5H342.8z"/>
	<path class="st0" d="M571.9,58.5V83h-68.7v28.4h63V134h-63v32.4h70.1v24.5h-98.7V58.5H571.9z"/>
	<path class="st0" d="M688.3,58.5c5.8,0,11.1,1,15.8,2.9c4.7,1.9,8.7,4.5,12,7.9c3.3,3.3,5.9,7.2,7.7,11.6c1.8,4.4,2.6,9.1,2.6,14.2
		c0,7.8-1.6,14.5-4.8,20.2c-3.2,5.7-8.5,10-15.8,13v0.4c3.5,1,6.4,2.5,8.7,4.5c2.3,2,4.2,4.4,5.6,7.2c1.5,2.8,2.5,5.8,3.2,9.2
		c0.7,3.3,1.1,6.7,1.4,10c0.1,2.1,0.2,4.6,0.4,7.4c0.1,2.8,0.3,5.7,0.6,8.7c0.3,3,0.8,5.8,1.5,8.4c0.7,2.7,1.7,4.9,3,6.8h-28.6
		c-1.6-4.2-2.6-9.2-2.9-15c-0.4-5.8-0.9-11.4-1.6-16.7c-1-6.9-3-12-6.2-15.2c-3.2-3.2-8.3-4.8-15.5-4.8h-28.6v51.7h-28.6V58.5H688.3
		z M678.1,118.4c6.6,0,11.5-1.5,14.8-4.4c3.3-3,4.9-7.8,4.9-14.5c0-6.4-1.6-11.1-4.9-14c-3.3-2.9-8.2-4.4-14.8-4.4h-31.3v37.3H678.1
		z"/>
	<path class="st0" d="M840,58.5l48.6,132.4H859l-9.8-29.5h-48.6l-10.2,29.5h-28.8l49.2-132.4H840z M841.7,139.7l-16.4-48.6h-0.4
		L808,139.7H841.7z"/>
</g>
</svg>
